<svg width="150" height="48" viewBox="0 0 150 48" fill="none" xmlns="http://www.w3.org/2000/svg">
<g clip-path="url(#clip0_128_2102)">
<path d="M15.8246 7.9502L15.4953 7.9141C15.3237 7.44906 15.1341 6.94372 14.9264 6.39325C14.7187 5.84278 14.5152 5.33743 14.3214 4.873C13.9783 3.94352 13.4545 3.15842 12.7454 2.5129C12.0368 1.86798 11.2693 1.45709 10.4385 1.28563C10.4385 1.26337 10.3482 1.2363 10.1628 1.21344C9.97802 1.19118 9.77034 1.1641 9.53977 1.14124C9.30981 1.11898 8.98474 1.09191 8.56936 1.06905C6.88499 1.06905 5.5305 1.52507 4.5011 2.44071C3.47651 3.35695 2.9618 4.57039 2.9618 6.08222C2.9618 6.56952 3.13758 7.06584 3.49457 7.56638C3.84673 8.06751 4.34337 8.55 4.97968 9.01504C5.61659 9.47948 6.38834 9.91264 7.30518 10.3145C8.22141 10.7158 9.22854 11.0767 10.3254 11.3926C11.3999 11.6862 12.3709 12.0832 13.2378 12.5838C14.1047 13.0849 14.8493 13.6576 15.4724 14.3031C16.0955 14.9481 16.5789 15.6477 16.9172 16.3877C17.2603 17.1319 17.4319 17.908 17.4319 18.7111C17.4319 19.8078 17.2242 20.8047 16.8088 21.6939C16.3935 22.5872 15.8065 23.3501 15.0528 23.9812C14.2943 24.6176 13.3865 25.1049 12.3258 25.4479C11.2645 25.7908 10.0864 25.9622 8.79029 25.9622C7.95954 25.9622 7.12458 25.9171 6.28059 25.8359C5.43599 25.7547 4.63233 25.6283 3.86479 25.4701C3.09725 25.3125 2.37968 25.1182 1.72049 24.8836C1.06131 24.6537 0.487614 24.4011 0 24.1346V18.0523H0.329892C0.402131 18.2737 0.487614 18.5174 0.586943 18.7833C0.686271 19.054 0.772356 19.2983 0.844595 19.5148C1.40445 20.981 2.28456 22.1992 3.48132 23.1738C4.67748 24.1484 5.97357 24.6989 7.36417 24.8204C7.63025 24.8433 7.85179 24.8655 8.02335 24.8745C8.19492 24.8884 8.35264 24.8932 8.49712 24.8932C8.6416 24.8932 8.72708 24.8932 8.75477 24.8932C10.4885 24.8932 11.8791 24.4775 12.9308 23.6479C13.9825 22.817 14.5062 21.7161 14.5062 20.3493C14.5062 19.785 14.3304 19.2303 13.9734 18.6798C13.6213 18.1293 13.1204 17.606 12.4703 17.1048C11.8243 16.6043 11.0435 16.1392 10.1273 15.7109C9.21048 15.282 8.20395 14.912 7.10652 14.5919C6.05424 14.2983 5.09767 13.9151 4.2308 13.4368C3.36393 12.9586 2.62348 12.4213 2.01366 11.8215C1.40445 11.2211 0.934894 10.5672 0.605002 9.85849C0.275712 9.1504 0.108359 8.42848 0.108359 7.69753C0.108359 6.54666 0.316046 5.49566 0.731421 4.54332C1.1468 3.59158 1.72471 2.77941 2.46997 2.10682C3.21464 1.43483 4.11763 0.915642 5.17894 0.550468C6.23965 0.184693 7.41835 0 8.71384 0C9.91 0 11.1567 0.171457 12.4522 0.509559C13.7483 0.848262 14.868 1.29947 15.8204 1.86798V7.9502H15.8246Z" fill="#1660AA"/>
<path d="M34.6519 25.3387V25.7761L24.7239 25.7767V25.3387L25.1615 25.3026C26.0422 25.2533 26.6743 24.9958 27.0668 24.5355C27.4551 24.0705 27.6538 23.3396 27.6538 22.3385V3.70379C27.6538 2.70212 27.4599 1.97117 27.0668 1.50613C26.6743 1.04169 26.0422 0.784208 25.1615 0.739088L24.7239 0.702991V0.265625H34.6519V0.702991L34.2143 0.739088C33.3336 0.789021 32.7015 1.04591 32.309 1.50613C31.9159 1.97117 31.722 2.70212 31.722 3.70379V22.3385C31.722 23.3402 31.9159 24.0711 32.309 24.5355C32.6973 25.0006 33.3336 25.2575 34.2143 25.3026L34.6519 25.3387Z" fill="#1660AA"/>
<path d="M56.9967 25.7761L57.1051 25.447L57.7281 25.4109C58.6805 25.3609 59.2493 25.1221 59.4299 24.698C59.6154 24.269 59.4257 23.6193 58.8611 22.7398L53.5154 14.6861L48.865 21.788C48.0842 22.9834 47.7724 23.8629 47.9307 24.423C48.0884 24.9867 48.7434 25.2894 49.8902 25.3387L50.4771 25.3748V25.8121L42.0161 25.8127V25.3748L42.4947 25.3387C43.3977 25.2894 44.2056 25.0319 44.9099 24.5716C45.619 24.1072 46.3143 23.3763 46.9958 22.3746L52.8562 13.6615C51.7594 12.0011 50.6577 10.3497 49.5603 8.70312C48.4635 7.05593 47.3618 5.39129 46.2644 3.70379C45.6052 2.70212 44.9689 1.97117 44.3591 1.50613C43.7499 1.04169 43.1129 0.784208 42.4538 0.739088L42.1245 0.702991V0.265625H52.5269V0.702991L51.9038 0.739088C50.9509 0.789021 50.382 1.02786 50.2014 1.45199C50.0166 1.88093 50.2062 2.53067 50.7703 3.41021L55.4616 10.44L59.8953 3.4824C60.4551 2.55292 60.64 1.88514 60.4461 1.47004C60.2517 1.05493 59.6647 0.825117 58.6895 0.775184L57.701 0.739088V0.301721H66.2752V0.739088L65.8008 0.775184C64.8978 0.825117 64.0894 1.082 63.385 1.54223C62.6765 2.00727 61.9812 2.73822 61.2991 3.73989L56.0624 11.4284C57.2363 13.2603 58.4324 15.0783 59.6515 16.8831C60.8705 18.6879 62.0805 20.5066 63.2767 22.3385C63.9359 23.3402 64.5728 24.0711 65.182 24.5355C65.7918 25.0006 66.4281 25.2575 67.0873 25.3026L67.4172 25.3387V25.7767L56.9967 25.7761Z" fill="#1660AA"/>
<path d="M74.7266 0.699085V0.261719H87.1836C88.5242 0.261719 89.7433 0.401291 90.8268 0.681037C91.9152 0.960783 92.8495 1.36265 93.6309 1.88605C94.4117 2.40945 95.0173 3.03632 95.4459 3.76727C95.8752 4.49822 96.0871 5.31038 96.0871 6.21279C96.0871 7.64761 95.532 8.86586 94.4213 9.86332C93.3107 10.8602 91.7756 11.5641 89.8251 11.9792C92.3896 12.3221 94.4298 13.0939 95.9426 14.2941C97.4548 15.4943 98.2139 16.9604 98.2139 18.6979C98.2139 19.7489 97.9743 20.7193 97.5005 21.5988C97.0262 22.479 96.3441 23.228 95.4688 23.8368C94.5881 24.4504 93.5316 24.9245 92.2987 25.2674C91.0664 25.6103 89.6939 25.7818 88.1769 25.7818H74.7314V25.3444L75.1696 25.3077C76.0497 25.2584 76.6818 25.0009 77.0749 24.5407C77.4632 24.0762 77.6619 23.3453 77.6619 22.3436V3.70891C77.6619 2.70724 77.4674 1.97629 77.0749 1.51125C76.6818 1.04681 76.0497 0.789326 75.1696 0.744205L74.7266 0.699085ZM81.7608 11.7584H86.1355C87.9012 11.7584 89.3231 11.2621 90.4024 10.2604C91.4812 9.26292 92.0188 7.92736 92.0188 6.24888C92.0188 4.76473 91.5763 3.57355 90.6956 2.67535C89.8149 1.77776 88.6506 1.32656 87.2059 1.32656H81.7651V11.7584H81.7608ZM81.797 24.7169L87.806 24.6808C89.6391 24.6808 91.1158 24.1394 92.2397 23.0565C93.3642 21.9736 93.9241 20.5207 93.9241 18.6937C93.9241 17.7913 93.7296 16.9743 93.3372 16.2295C92.944 15.4901 92.3884 14.8536 91.6708 14.3302C90.9485 13.8068 90.0816 13.405 89.0702 13.1252C88.0541 12.8455 86.9253 12.7059 85.684 12.7059H81.8012V24.7169H81.797Z" fill="#1660AA"/>
<path d="M115.461 25.3387V25.7761L105.532 25.7767V25.3387L105.97 25.3026C106.851 25.2533 107.483 24.9958 107.875 24.5355C108.263 24.0705 108.463 23.3396 108.463 22.3385V3.70379C108.463 2.70212 108.268 1.97117 107.875 1.50613C107.483 1.04169 106.851 0.784208 105.97 0.739088L105.532 0.702991V0.265625H115.461V0.702991L115.023 0.739088C114.142 0.789021 113.51 1.04591 113.117 1.50613C112.724 1.97117 112.53 2.70212 112.53 3.70379V22.3385C112.53 23.3402 112.724 24.0711 113.117 24.5355C113.506 25.0006 114.142 25.2575 115.023 25.3026L115.461 25.3387Z" fill="#1660AA"/>
<path d="M122.788 0.261719L134.545 0.297815C136.671 0.297815 138.604 0.604633 140.351 1.21346C142.099 1.82288 143.593 2.68438 144.839 3.79434C146.085 4.9043 147.052 6.24888 147.734 7.82388C148.415 9.39828 148.758 11.1357 148.758 13.0398C148.758 14.9439 148.451 16.6807 147.842 18.2557C147.232 19.8301 146.374 21.1705 145.277 22.2846C144.18 23.3946 142.853 24.2567 141.304 24.8655C139.751 25.475 138.026 25.7818 136.121 25.7818H122.788V25.3438L123.226 25.3077C124.107 25.2584 124.739 25.0009 125.131 24.5407C125.52 24.0762 125.719 23.3453 125.719 22.3436V3.70891C125.719 2.70724 125.524 1.97629 125.131 1.51125C124.739 1.04681 124.107 0.789326 123.226 0.744205L122.788 0.708109V0.261719ZM129.786 24.7169H136.139C137.435 24.7169 138.604 24.4372 139.647 23.8777C140.69 23.3182 141.589 22.5241 142.347 21.4995C143.106 20.4756 143.688 19.2483 144.09 17.8093C144.496 16.3697 144.695 14.7772 144.695 13.0217C144.695 11.2663 144.451 9.66961 143.959 8.23478C143.471 6.79514 142.776 5.56787 141.882 4.54394C140.988 3.51941 139.918 2.7301 138.667 2.17061C137.417 1.61112 136.035 1.33137 134.518 1.33137H129.782V24.7169H129.786Z" fill="#1660AA"/>
</g>
<path d="M7.73283 38.1337V47.8663H6.11624L1.91053 40.8944V47.8663H0.293945V38.1337H1.91053L6.12912 45.119V38.1337H7.73283Z" fill="#1660AA"/>
<path d="M14.9205 38.1337H16.5307V44.6377C16.5307 45.3775 16.3761 45.9969 16.0669 46.496C15.7578 46.9951 15.337 47.3717 14.8046 47.6257C14.2765 47.8752 13.6861 48 13.0334 48C12.3593 48 11.7582 47.8752 11.2301 47.6257C10.7019 47.3717 10.2854 46.9951 9.98059 46.496C9.68003 45.9969 9.52975 45.3775 9.52975 44.6377V38.1337H11.1399V44.6377C11.1399 45.1056 11.2172 45.4911 11.3718 45.7941C11.5263 46.0927 11.7453 46.3133 12.0287 46.4559C12.3121 46.5985 12.647 46.6698 13.0334 46.6698C13.4199 46.6698 13.7526 46.5985 14.0317 46.4559C14.3151 46.3133 14.5341 46.0927 14.6887 45.7941C14.8432 45.4911 14.9205 45.1056 14.9205 44.6377V38.1337Z" fill="#1660AA"/>
<path d="M18.9459 38.1337H20.3886L23.1001 45.6404L25.8051 38.1337H27.2478L23.6668 47.8663H22.5204L18.9459 38.1337ZM18.289 38.1337H19.6608L19.8991 44.631V47.8663H18.289V38.1337ZM26.5329 38.1337H27.9112V47.8663H26.2946V44.631L26.5329 38.1337Z" fill="#1660AA"/>
<path d="M31.5566 38.1337V47.8663H29.94V38.1337H31.5566Z" fill="#1660AA"/>
<path d="M38.4995 45.3596C38.4995 45.1591 38.4695 44.9808 38.4093 44.8249C38.3535 44.6689 38.2526 44.5263 38.1066 44.3971C37.9607 44.2678 37.7546 44.143 37.4883 44.0227C37.2264 43.898 36.8915 43.7709 36.4836 43.6417C36.0371 43.4991 35.6249 43.3409 35.247 43.1671C34.8735 42.9889 34.5471 42.7839 34.2681 42.5521C33.989 42.316 33.7721 42.0463 33.6176 41.7433C33.463 41.4358 33.3857 41.0816 33.3857 40.6805C33.3857 40.2839 33.4651 39.9229 33.624 39.5976C33.7872 39.2723 34.0169 38.9915 34.3131 38.7553C34.6137 38.5147 34.9679 38.3298 35.3758 38.2005C35.7837 38.0668 36.2346 38 36.7284 38C37.4239 38 38.0229 38.1337 38.5253 38.4011C39.0319 38.6684 39.4205 39.0272 39.691 39.4773C39.9658 39.9274 40.1032 40.4242 40.1032 40.9679H38.4995C38.4995 40.6471 38.433 40.3641 38.2999 40.119C38.171 39.8694 37.9735 39.6734 37.7073 39.5307C37.4454 39.3881 37.1126 39.3168 36.709 39.3168C36.3269 39.3168 36.0092 39.377 35.7558 39.4973C35.5025 39.6176 35.3136 39.7803 35.1891 39.9853C35.0645 40.1903 35.0023 40.422 35.0023 40.6805C35.0023 40.8632 35.0431 41.0303 35.1246 41.1818C35.2062 41.3289 35.3307 41.467 35.4982 41.5963C35.6657 41.721 35.8761 41.8391 36.1294 41.9505C36.3827 42.0619 36.6811 42.1689 37.0246 42.2714C37.5442 42.4318 37.9972 42.6101 38.3836 42.8061C38.77 42.9978 39.0921 43.2161 39.3497 43.4612C39.6073 43.7063 39.8005 43.9848 39.9293 44.2968C40.0581 44.6043 40.1225 44.9541 40.1225 45.3463C40.1225 45.7562 40.0431 46.1261 39.8842 46.4559C39.7254 46.7812 39.4978 47.0597 39.2015 47.2914C38.9096 47.5187 38.5575 47.6947 38.1453 47.8195C37.7374 47.9398 37.2822 48 36.7799 48C36.329 48 35.8846 47.9376 35.4467 47.8128C35.013 47.6881 34.618 47.4987 34.2616 47.2447C33.9052 46.9862 33.6218 46.6653 33.4115 46.2821C33.2011 45.8944 33.0959 45.4421 33.0959 44.9251H34.7125C34.7125 45.2415 34.764 45.5111 34.867 45.734C34.9744 45.9568 35.1225 46.1395 35.3114 46.2821C35.5004 46.4202 35.7193 46.5227 35.9684 46.5896C36.2217 46.6564 36.4922 46.6898 36.7799 46.6898C37.1577 46.6898 37.4733 46.6341 37.7266 46.5227C37.9843 46.4113 38.1775 46.2553 38.3063 46.0548C38.4351 45.8543 38.4995 45.6225 38.4995 45.3596Z" fill="#1660AA"/>
<path d="M42.2093 38.1337H43.652L46.3635 45.6404L49.0685 38.1337H50.5112L46.9302 47.8663H45.7838L42.2093 38.1337ZM41.5524 38.1337H42.9242L43.1625 44.631V47.8663H41.5524V38.1337ZM49.7963 38.1337H51.1746V47.8663H49.558V44.631L49.7963 38.1337Z" fill="#1660AA"/>
<path d="M56.8616 39.4305L54.06 47.8663H52.3661L55.8955 38.1337H56.9776L56.8616 39.4305ZM59.206 47.8663L56.3979 39.4305L56.2755 38.1337H57.364L60.9063 47.8663H59.206ZM59.0708 44.2567V45.5869H53.9698V44.2567H59.0708Z" fill="#1660AA"/>
<path d="M65.0025 38.1337V47.8663H63.3988V38.1337H65.0025ZM67.9459 38.1337V39.4706H60.4812V38.1337H67.9459Z" fill="#1660AA"/>
<path d="M70.9086 38.1337V47.8663H69.292V38.1337H70.9086Z" fill="#1660AA"/>
<path d="M78.4569 44.6979H80.0671C80.0156 45.3351 79.8438 45.9033 79.5518 46.4024C79.2599 46.8971 78.8498 47.287 78.3217 47.5722C77.7935 47.8574 77.1516 48 76.3959 48C75.8163 48 75.2946 47.893 74.8309 47.6791C74.3672 47.4608 73.97 47.1533 73.6394 46.7567C73.3088 46.3556 73.0554 45.8721 72.8794 45.3062C72.7076 44.7402 72.6218 44.1074 72.6218 43.4078V42.5989C72.6218 41.8993 72.7098 41.2665 72.8858 40.7005C73.0662 40.1346 73.3238 39.6511 73.6587 39.25C73.9936 38.8445 74.3951 38.5348 74.8631 38.3209C75.3354 38.107 75.8657 38 76.4539 38C77.201 38 77.8322 38.1426 78.3474 38.4278C78.8627 38.713 79.262 39.1074 79.5454 39.611C79.8331 40.1145 80.0091 40.6916 80.0735 41.3422H78.4634C78.4204 40.9234 78.326 40.5646 78.18 40.266C78.0383 39.9675 77.8279 39.7402 77.5488 39.5842C77.2697 39.4238 76.9047 39.3436 76.4539 39.3436C76.0846 39.3436 75.7626 39.4149 75.4878 39.5575C75.213 39.7001 74.9833 39.9095 74.7987 40.1858C74.614 40.4621 74.4745 40.803 74.38 41.2086C74.2899 41.6096 74.2448 42.0686 74.2448 42.5856V43.4078C74.2448 43.898 74.2856 44.3436 74.3672 44.7447C74.453 45.1413 74.5818 45.4822 74.7536 45.7674C74.9296 46.0526 75.1529 46.2732 75.4234 46.4291C75.6939 46.5851 76.0181 46.6631 76.3959 46.6631C76.8554 46.6631 77.2268 46.5873 77.5102 46.4358C77.7978 46.2843 78.0147 46.0637 78.1607 45.7741C78.3109 45.4799 78.4097 45.1212 78.4569 44.6979Z" fill="#1660AA"/>
<path d="M88.472 39.4305L85.6704 47.8663H83.9765L87.506 38.1337H88.588L88.472 39.4305ZM90.8164 47.8663L88.0083 39.4305L87.886 38.1337H88.9744L92.5167 47.8663H90.8164ZM90.6812 44.2567V45.5869H85.5802V44.2567H90.6812Z" fill="#1660AA"/>
<path d="M98.7126 38.1337H100.323V44.6377C100.323 45.3775 100.168 45.9969 99.859 46.496C99.5499 46.9951 99.1291 47.3717 98.5967 47.6257C98.0685 47.8752 97.4781 48 96.8255 48C96.1514 48 95.5503 47.8752 95.0221 47.6257C94.494 47.3717 94.0775 46.9951 93.7727 46.496C93.4721 45.9969 93.3218 45.3775 93.3218 44.6377V38.1337H94.932V44.6377C94.932 45.1056 95.0092 45.4911 95.1638 45.7941C95.3184 46.0927 95.5374 46.3133 95.8208 46.4559C96.1041 46.5985 96.4391 46.6698 96.8255 46.6698C97.2119 46.6698 97.5447 46.5985 97.8238 46.4559C98.1072 46.3133 98.3261 46.0927 98.4807 45.7941C98.6353 45.4911 98.7126 45.1056 98.7126 44.6377V38.1337Z" fill="#1660AA"/>
<path d="M107.62 44.6979H109.23C109.179 45.3351 109.007 45.9033 108.715 46.4024C108.423 46.8971 108.013 47.287 107.485 47.5722C106.957 47.8574 106.315 48 105.559 48C104.979 48 104.458 47.893 103.994 47.6791C103.53 47.4608 103.133 47.1533 102.802 46.7567C102.472 46.3556 102.218 45.8721 102.042 45.3062C101.871 44.7402 101.785 44.1074 101.785 43.4078V42.5989C101.785 41.8993 101.873 41.2665 102.049 40.7005C102.229 40.1346 102.487 39.6511 102.822 39.25C103.157 38.8445 103.558 38.5348 104.026 38.3209C104.498 38.107 105.029 38 105.617 38C106.364 38 106.995 38.1426 107.51 38.4278C108.026 38.713 108.425 39.1074 108.708 39.611C108.996 40.1145 109.172 40.6916 109.237 41.3422H107.626C107.583 40.9234 107.489 40.5646 107.343 40.266C107.201 39.9675 106.991 39.7402 106.712 39.5842C106.433 39.4238 106.068 39.3436 105.617 39.3436C105.248 39.3436 104.926 39.4149 104.651 39.5575C104.376 39.7001 104.146 39.9095 103.962 40.1858C103.777 40.4621 103.637 40.803 103.543 41.2086C103.453 41.6096 103.408 42.0686 103.408 42.5856V43.4078C103.408 43.898 103.449 44.3436 103.53 44.7447C103.616 45.1413 103.745 45.4822 103.917 45.7674C104.093 46.0526 104.316 46.2732 104.586 46.4291C104.857 46.5851 105.181 46.6631 105.559 46.6631C106.018 46.6631 106.39 46.5873 106.673 46.4358C106.961 46.2843 107.178 46.0637 107.324 45.7741C107.474 45.4799 107.573 45.1212 107.62 44.6979Z" fill="#1660AA"/>
<path d="M114.363 38.1337V47.8663H112.76V38.1337H114.363ZM117.307 38.1337V39.4706H109.842V38.1337H117.307Z" fill="#1660AA"/>
<path d="M120.269 38.1337V47.8663H118.653V38.1337H120.269Z" fill="#1660AA"/>
<path d="M129.756 42.7326V43.2674C129.756 44.0027 129.664 44.6622 129.479 45.246C129.295 45.8298 129.031 46.3266 128.687 46.7366C128.348 47.1466 127.94 47.4608 127.463 47.6791C126.987 47.893 126.459 48 125.879 48C125.304 48 124.778 47.893 124.301 47.6791C123.829 47.4608 123.419 47.1466 123.071 46.7366C122.723 46.3266 122.453 45.8298 122.259 45.246C122.07 44.6622 121.976 44.0027 121.976 43.2674V42.7326C121.976 41.9973 122.07 41.34 122.259 40.7607C122.448 40.1769 122.715 39.68 123.058 39.2701C123.406 38.8556 123.816 38.5414 124.288 38.3275C124.765 38.1092 125.291 38 125.866 38C126.446 38 126.974 38.1092 127.45 38.3275C127.927 38.5414 128.337 38.8556 128.681 39.2701C129.024 39.68 129.288 40.1769 129.473 40.7607C129.662 41.34 129.756 41.9973 129.756 42.7326ZM128.14 43.2674V42.7193C128.14 42.1756 128.088 41.6965 127.985 41.2821C127.886 40.8632 127.738 40.5134 127.541 40.2326C127.347 39.9474 127.109 39.7335 126.826 39.5909C126.542 39.4439 126.222 39.3703 125.866 39.3703C125.51 39.3703 125.192 39.4439 124.913 39.5909C124.634 39.7335 124.396 39.9474 124.198 40.2326C124.005 40.5134 123.857 40.8632 123.754 41.2821C123.651 41.6965 123.599 42.1756 123.599 42.7193V43.2674C123.599 43.8111 123.651 44.2923 123.754 44.7112C123.857 45.1301 124.007 45.4844 124.204 45.7741C124.406 46.0593 124.647 46.2754 124.926 46.4225C125.205 46.5651 125.523 46.6364 125.879 46.6364C126.24 46.6364 126.56 46.5651 126.839 46.4225C127.118 46.2754 127.354 46.0593 127.547 45.7741C127.74 45.4844 127.886 45.1301 127.985 44.7112C128.088 44.2923 128.14 43.8111 128.14 43.2674Z" fill="#1660AA"/>
<path d="M138.812 38.1337V47.8663H137.195L132.989 40.8944V47.8663H131.373V38.1337H132.989L137.208 45.119V38.1337H138.812Z" fill="#1660AA"/>
<path d="M145.671 45.3596C145.671 45.1591 145.641 44.9808 145.581 44.8249C145.525 44.6689 145.424 44.5263 145.278 44.3971C145.132 44.2678 144.926 44.143 144.66 44.0227C144.398 43.898 144.063 43.7709 143.655 43.6417C143.208 43.4991 142.796 43.3409 142.418 43.1671C142.045 42.9889 141.719 42.7839 141.439 42.5521C141.16 42.316 140.944 42.0463 140.789 41.7433C140.634 41.4358 140.557 41.0816 140.557 40.6805C140.557 40.2839 140.637 39.9229 140.795 39.5976C140.959 39.2723 141.188 38.9915 141.485 38.7553C141.785 38.5147 142.139 38.3298 142.547 38.2005C142.955 38.0668 143.406 38 143.9 38C144.595 38 145.194 38.1337 145.697 38.4011C146.203 38.6684 146.592 39.0272 146.862 39.4773C147.137 39.9274 147.275 40.4242 147.275 40.9679H145.671C145.671 40.6471 145.604 40.3641 145.471 40.119C145.342 39.8694 145.145 39.6734 144.879 39.5307C144.617 39.3881 144.284 39.3168 143.88 39.3168C143.498 39.3168 143.181 39.377 142.927 39.4973C142.674 39.6176 142.485 39.7803 142.36 39.9853C142.236 40.1903 142.174 40.422 142.174 40.6805C142.174 40.8632 142.214 41.0303 142.296 41.1818C142.378 41.3289 142.502 41.467 142.67 41.5963C142.837 41.721 143.047 41.8391 143.301 41.9505C143.554 42.0619 143.853 42.1689 144.196 42.2714C144.716 42.4318 145.169 42.6101 145.555 42.8061C145.941 42.9978 146.263 43.2161 146.521 43.4612C146.779 43.7063 146.972 43.9848 147.101 44.2968C147.23 44.6043 147.294 44.9541 147.294 45.3463C147.294 45.7562 147.215 46.1261 147.056 46.4559C146.897 46.7812 146.669 47.0597 146.373 47.2914C146.081 47.5187 145.729 47.6947 145.317 47.8195C144.909 47.9398 144.454 48 143.951 48C143.5 48 143.056 47.9376 142.618 47.8128C142.184 47.6881 141.789 47.4987 141.433 47.2447C141.077 46.9862 140.793 46.6653 140.583 46.2821C140.372 45.8944 140.267 45.4421 140.267 44.9251H141.884C141.884 45.2415 141.935 45.5111 142.038 45.734C142.146 45.9568 142.294 46.1395 142.483 46.2821C142.672 46.4202 142.891 46.5227 143.14 46.5896C143.393 46.6564 143.664 46.6898 143.951 46.6898C144.329 46.6898 144.645 46.6341 144.898 46.5227C145.156 46.4113 145.349 46.2553 145.478 46.0548C145.607 45.8543 145.671 45.6225 145.671 45.3596Z" fill="#1660AA"/>
<path d="M0.407227 32H147.407" stroke="#B7B7B7"/>
<defs>
<clipPath id="clip0_128_2102">
<rect width="149.294" height="26.4706" fill="white"/>
</clipPath>
</defs>
</svg>
