<?xml version="1.0" encoding="UTF-8"?>
<svg id="Layer_2" data-name="Layer 2" xmlns="http://www.w3.org/2000/svg" viewBox="0 0 970.28 205.26">
  <defs>
    <style>
      .cls-1 {
        letter-spacing: .6em;
      }

      .cls-2, .cls-3, .cls-4 {
        fill: #fff;
      }

      .cls-5 {
        letter-spacing: 0em;
      }

      .cls-3 {
        font-family: MinionConceptRoman-Bold, 'Minion Variable Concept';
        font-size: 124.5px;
        font-variation-settings: 'wght' 700, 'opsz' 11;
        font-weight: 700;
      }

      .cls-6 {
        letter-spacing: 0em;
      }

      .cls-4 {
        font-family: EngraversGothicBT-Regular, 'Engravers' Gothic BT';
        font-size: 90.59px;
      }

      .cls-7 {
        letter-spacing: 0em;
      }

      .cls-8 {
        letter-spacing: 0em;
      }

      .cls-9 {
        letter-spacing: .58em;
      }

      .cls-10 {
        letter-spacing: 0em;
      }

      .cls-11 {
        letter-spacing: .01em;
      }
    </style>
  </defs>
  <g id="Layer_1-2" data-name="Layer 1">
    <g>
      <g>
        <g>
          <path class="cls-2" d="m96.78,176.12c-.63-.11-1.27-.24-1.9-.37v1.77c.7.15,1.41.29,2.11.41v.53c-.92-.16-1.83-.34-2.74-.54v-4.92c.87.2,1.75.37,2.63.53v.53c-.67-.12-1.34-.25-2-.39v1.55c.63.13,1.26.26,1.9.37v.53Z"/>
          <path class="cls-2" d="m97.73,177.82c.28.22.7.43,1.13.49.65.09,1.03-.21,1.03-.7,0-.46-.26-.75-.93-1.1-.8-.4-1.29-.89-1.29-1.59,0-.77.63-1.23,1.59-1.1.5.07.87.23,1.09.38-.06.17-.12.33-.18.5-.16-.11-.49-.29-.93-.35-.67-.09-.93.27-.93.6,0,.46.3.73.98,1.09.83.43,1.26.88,1.26,1.6,0,.76-.56,1.36-1.72,1.2-.47-.07-.99-.28-1.25-.51.05-.17.11-.34.16-.51Z"/>
          <path class="cls-2" d="m102.34,174.77c-.5-.04-1-.09-1.5-.14v-.54c1.22.13,2.43.22,3.65.28v.54c-.5-.02-1.01-.05-1.51-.09v4.38c-.21-.01-.43-.03-.64-.05v-4.38Z"/>
          <path class="cls-2" d="m104.43,178.9c0-.27.18-.45.44-.44.26,0,.43.21.43.47,0,.26-.17.45-.44.44-.26-.01-.43-.21-.43-.48Z"/>
          <path class="cls-2" d="m105.9,179.33c0-.13,0-.26,0-.39.17-.16.34-.32.51-.48,1.22-1.14,1.77-1.77,1.78-2.48,0-.48-.24-.92-.95-.92-.43,0-.79.22-1.01.39-.07-.15-.14-.3-.21-.46.33-.27.8-.47,1.35-.47,1.03,0,1.46.67,1.46,1.35,0,.88-.64,1.61-1.64,2.57-.13.12-.25.23-.38.35h0c.71.02,1.43.01,2.14-.01v.53c-1.01.03-2.03.04-3.04.01Z"/>
          <path class="cls-2" d="m112.83,176.65c0,1.61-.6,2.56-1.65,2.64-.93.06-1.56-.78-1.58-2.35,0-1.59.69-2.49,1.66-2.56,1-.07,1.57.76,1.57,2.27Zm-2.58.27c0,1.23.38,1.92.97,1.87.66-.05.97-.84.97-2.05,0-1.17-.3-1.9-.97-1.86-.56.04-.97.74-.97,2.04Z"/>
          <path class="cls-2" d="m114.81,174.7s0,0-.01,0c-.27.18-.55.37-.82.55-.04-.16-.08-.32-.12-.47.35-.22.69-.45,1.04-.68.18-.02.36-.05.55-.07v4.74c-.21.03-.41.06-.62.08v-4.14Z"/>
          <path class="cls-2" d="m119.96,173.74c-.6.13-1.19.26-1.79.37-.06.42-.12.83-.18,1.25.11-.04.21-.07.38-.1.36-.07.72-.06,1.01.05.37.13.67.47.67,1.07,0,.92-.73,1.79-1.75,1.98-.51.1-.95.03-1.17-.08.05-.17.11-.34.16-.52.2.08.58.16,1.01.08.6-.12,1.11-.62,1.11-1.25,0-.61-.41-.96-1.35-.78-.27.05-.48.12-.65.17.1-.78.2-1.55.3-2.33.75-.14,1.5-.29,2.25-.45v.54Z"/>
        </g>
        <g>
          <path class="cls-2" d="m226.74,158.43h0c-.55-.57-1.44-.59-2.23-.61-.53-.01-.99-.02-1.31-.21-.18-.11-.27-.33-.37-.6-.08-.2-.17-.45-.29-.54-1.13-.88-2.93.47-3.9,1.2-.55.41-.8.6-1.03.36l-.05-.06-.02-.08c-.26-1.28-.61-1.56-.79-1.62-.42-.12-1.07.55-1.59,1.09-.41.42-.77.79-1.11.92-.22.08-.49.06-.83.04-.48-.03-1.08-.08-1.74.15-.78.27-1.61.88-2.49,1.53-1.12.82-2.27,1.67-3.45,1.91-2.01.41-4.51.12-7.65-.89l-1.7-.55,1.79-.02c1.49-.01,2.79-.88,3.98-2.66,2.05-3.06,2.94-7.91,3.54-12.24.06-.42.24-.8.42-1.17.33-.68.66-1.38.32-2.49l-.46-.46-2.55-.24-.52-1.06.08-.13c.2-.33.71-1.51,1.21-2.66,1.26-2.9,1.48-3.31,1.67-3.43.33-.19.78-.14,1.21-.1.16.02.42.05.55.03.4-1.27.88-2.42,1.36-3.53,1.06-2.51,2.06-4.87,1.7-8-.14-1.24-.65-2.52-1.11-3.66l-.17-.44.47.04c3.49.28,6.2-.5,7.84-2.26,1.49-1.61,2.02-3.94,1.55-6.91-.47-3.03-3.27-4.76-5.97-6.44-2.84-1.77-5.77-3.59-5.97-6.92-.06-1.05,1.08-5.41,1.72-6.14.39-.45.97-.49,1.48-.52.29-.02.57-.03.78-.12,1.55-.67,2.4-2.15,3.31-3.72.67-1.15,1.36-2.34,2.35-3.19,0-.13-.03-.19-.06-.23-.31-.36-1.54-.31-2.13-.28-.54.03-.72.03-.86-.1l-.09-.09v-.13c.05-.51-.05-1.03-.15-1.53-.17-.91-.35-1.85.25-2.83l.08-.13,2.56-.05c.01-.64-.21-1.15-.67-1.51-.95-.74-2.65-.71-3.84-.28-2.25.8-3.19,2.99-4.1,5.11l-.23.54-2.36.49c.41.39.83,6.21.82,6.27-.02.68-.47,1.71-.98,2.89-.5,1.15-1.07,2.46-1.2,3.44-.58,4.22.65,7.24,4.11,10.1.62.51,1.41,1.01,2.25,1.53,2.72,1.7,5.81,3.62,4.63,7.2-.22.68-.69,1.2-1.36,1.48-1.21.52-2.72.19-3.65-.25-2.52-1.2-4.91-6.6-5.82-8.87-1.65-4.1-2.78-8.42-2.75-10.51.01-.99.32-2.26.62-3.48.18-.76.36-1.47.46-2.09.14-.86.18-1.55.23-2.23.1-1.51.18-2.81,1.32-4.9.03-.06.06-.13.09-.21.08-.19.17-.42.35-.54v-.03s.83-6.57.83-6.57l1.19.4c2.08-9.53-3.47-17.84-10.06-19.67-2.5-.7-6.06-.8-8.39.52-.96.54-1.2,1.36-1.4,2.02-.12.39-.22.72-.45.92-.22.19-.74.34-1.63.59-.98.28-2.2.62-2.68,1.03-.34.28-.39.69-.45,1.07-.04.31-.08.6-.28.79-.13.13-.4.21-1.14.39-.44.11-.94.23-1.2.35l-.79.36c-1.88.84-3.01,1.35-3.15,1.97-.15.64.65,1.69,2.38,3.73l3.68-.64v2.17s-.26.02-.26.02c-.22.02-.51,0-.81,0-.79-.04-1.87-.09-2.02.43-.05.43.92,3.48,1.21,3.77.49.4.98.32,1.66.21.52-.09.73-.38.98-.72.31-.43.7-.96,1.74-.76l.19.04.04.19c.18.81-.06,1.04-.53,1.18-.11.03-.22.06-.32.13-1.52,1.07-2.83,1.99-4.87,1.5-.95-.23-4.65-2.15-5.29-2.83-1.46-1.53-4.71-9.91-5.29-11.49-.25-.69-.43-1.5-.62-2.35-.59-2.67-1.19-5.44-4.2-5.64-.55-.04-1.55.19-2.51.41-1.46.33-2.37.53-2.78.28l-.08-.07-2.98-3.63c-6.83.17-13.43-1.95-19.82-4-5.37-1.72-10.92-3.5-16.52-3.88-8.3-.56-16.06,1.69-23.57,3.88-6.58,1.91-13.38,3.89-20.56,3.99l-3.7,3.78-.17-.05c-2.94-.88-4.91-.95-6.2-.23-1.52.85-2.04,2.77-2.68,5.19-.29,1.09-.62,2.33-1.09,3.57-1.04,2.78-3.67,9.41-5.71,10.86-.54.39-4.55,2.41-5.17,2.45-1.24.08-4.41-1.57-5.1-2.87l-.18-.34.38-.08c1.07-.23,1.71.35,2.28.86.64.58,1.15,1.04,2.23.59l1.27-3.87c-.25-.36-.92-.44-1.56-.52-.67-.08-1.3-.16-1.6-.57-.14-.2-.18-.45-.12-.74v-.07s.06-.05.06-.05c1.07-1.29,2.29-.62,3.27-.08.07.04.13.07.2.11l3.06-3.52c.02-.95-2.99-2.07-4.62-2.69-1.03-.39-1.63-.62-1.86-.82-.28-.24-.41-.6-.54-.94-.11-.31-.22-.62-.44-.84-.44-.45-1.25-.65-2.04-.85-.7-.18-1.36-.35-1.81-.69-.6-.45-.8-.95-1-1.43-.33-.8-.63-1.55-3.01-2.2-4.37-1.2-8.61-.04-11.95,3.26-4.12,4.07-6.03,10.71-4.69,16.23l1.45-.02-.02.31c-.12,1.93.07,3.81.57,5.75.19.72.65,1.65,1.09,2.55.46.94.9,1.83,1,2.43.29,1.75.71,5.92.83,7.71.31,4.56-3.71,17.24-7.52,20.06-2.26,1.67-4.43,1.15-5.49-.04-1.03-1.16-1.24-3.23.64-5.24,1.15-1.23,2.61-2.22,4.02-3.18,3.26-2.22,6.35-4.31,6.25-9.23-.03-1.46-.94-3.65-1.67-5.4-.6-1.45-.94-2.29-.94-2.77,0-.27.15-.53.3-.81.15-.26.3-.53.31-.78.04-.56.04-1.12.05-1.67,0-1.06.02-2.15.28-3.25l-2.55-.04-.04-.24c-.36-2.09-1.74-4.2-3.45-5.25-1.17-.72-2.42-.9-3.63-.52-.75.23-1.76,1.16-1.74,2.01l2.98.37-.22,4.17-2.42.44-.27.8c1.06.8,1.69,1.94,2.3,3.04.81,1.47,1.58,2.86,3.28,3.44.24.08.62.09.95.1.44,0,.79.02,1.01.16.36.24,1.53,4.16,1.57,4.39.88,5.01-1.88,6.64-4.79,8.37-.96.57-1.95,1.15-2.88,1.88-3.63,2.84-5.11,6.63-3.85,9.89,1.2,3.11,4.67,4.85,9.06,4.53l.37-.03-.06.37c-.14.83-.35,1.6-.56,2.34-.45,1.61-.87,3.12-.44,4.96.25,1.05,3.11,7.7,3.58,8.13,0,0,.15-.03.23-.04.3-.06.76-.14,1.18.28.03.03,2.95,5.34,2.91,5.89-.07.92-1.08,1.07-1.97,1.2-.96.15-1.61.28-1.74.8.16.93.29,1.86.42,2.77.45,3.28.88,6.38,2.78,9.22l.05.08v.09c-.04,2.24,1.08,3.45,2.51,4.99l.15.16,3.24,1.6-.9.14c-.57.09-1.16.21-1.73.32-1.92.38-3.91.78-5.87.37-1.1-.23-2.37-1.17-3.59-2.07-.97-.72-1.88-1.39-2.54-1.58-.46-.13-.86-.05-1.25.03-.38.08-.75.16-1.11,0-.34-.14-.62-.46-.93-.81-.58-.66-1.18-1.35-2.2-.95l-.76,1.81-.31-.34c-1.12-1.23-2.9-2.37-4.22-1.52-.08.05-.15.2-.23.35-.14.29-.32.65-.75.8-.32.11-.74.16-1.19.22-1.57.19-2.67.43-2.6,1.7.07,1.2.94,1.65,1.57,1.98.29.15.52.27.64.44.11.16.04.31-.04.52-.18.43-.52,1.22.04,1.99.62.85,1.25.7,1.98.52.36-.09.74-.18,1.1-.12.31.06.45.35.58.64.19.41.41.86,1.05.96.89.13,1.62-.34,2.4-.84.42-.27.85-.54,1.31-.72l.1-.02c.22,0,.32.18.44.39.26.48.74,1.36,2.15,1.12.71-.12,1.85-.68,3.05-1.26,1.32-.64,2.69-1.31,3.83-1.59,1.55-.38,3.13-.52,4.66-.67.9-.08,1.84-.17,2.76-.31l.28-.04.05.28c.12.73-.68.88-1.07.95-.08.01-.16.03-.23.04-.74.18-1.72.24-2.67.29-.9.05-1.75.1-2.21.25-.42.14-.44.61-.41,1.17.01.29.02.49-.11.63-.13.14-.34.15-.96.18-1.09.05-3.11.15-3.63,1.19-.31.62-.06,1.55.74,2.76l.05.07v.09c0,.46-.61.67-1.62,1.01-1.17.4-2.76.94-3,1.86-.11.42.04.91.37,1.27.32.35.77.51,1.18.44l.34-.06v1.07s-.13.09-.13.09c-1.78,1.25-2.2,2.89-2.01,4.01.15.86.65,1.49,1.34,1.67.94.26,2.11-.34,3.21-1.63l.05-.06.08-.03c.27-.09.48-.09.65,0,.23.12.29.36.33.54.03.11.06.23.11.27.56.39,1.06.5,1.51.33,1.52-.57,2.41-4.13,2.94-6.26.36-1.45.52-2.05.79-2.24.16-.12.33-.04.54.05.31.14.83.38,1.31.19.34-.13.63-.47.86-1,.36-.84.51-1.88.67-2.98.22-1.53.44-3.1,1.26-4.48,3.03-5.1,14.75-6.38,21.75-7.15.79-.09,1.51-.16,2.13-.24l.56-.07-.27.5c-.95,1.74-2.2,1.62-3.41,1.51-1.24-.11-2.4-.22-3.53,1.49-1.04,1.57-1.29,2.86-.74,3.71.53.81,1.8,1.19,3.23.95,1.19-.2,2.7-.93,3.05-2.33.1-.39.08-.81.07-1.22-.01-.45-.03-.91.1-1.34.32-1.08,2.83-2.6,4.88-3.29,1.18-.39,2.77-.72,3.67-.05l.46.34-.55.17c-1.86.56-3.72,2.62-5.51,4.6-2.05,2.27-3.99,4.41-6.02,4.57-.58.05-1.17-.03-1.75-.1-.92-.12-1.79-.23-2.29.21-.37.33-.55.95-.55,1.92v.34s-.34-.05-.34-.05c-.53-.08-1.06-.23-1.58-.38-2.05-.57-3.33-.81-3.94,1.33l-.03.1-.08.06c-.3.21-.7-.04-1.5-.56-1.01-.65-2.54-1.64-3.52-1.26-.43.16-.74.58-.93,1.28-.13.47.06.93.17,1.18.07.17.13.31.02.46-.08.11-.18.14-.44.21-.84.23-1.71.58-1.7,1.39.03.82.82,1.21,1.59,1.59.49.25.92.46,1.13.79.2.3.25.61.29.89.07.41.12.77.64,1.14,1.02.74,2.05.51,3.05.29.7-.15,1.36-.3,2.01-.14.28.07.44.33.61.61.38.61.78,1.25,2.28.5,1.02-.51,1.18-1.21,1.32-1.83.09-.39.17-.75.46-.99l.09-.07,2.56.16c.52-2,1.08-2.22,2.16-2.47.33-.08.7-.16,1.14-.33,1.32-.52,1.96-2.71,2.52-4.65.28-.97.54-1.88.88-2.54,1.65-3.25,6.91-7.46,10.24-8.19l.35-.08s.77-.02.77.16-.12.33-.35.45l-.42.22s-1.14.75-1.76,1.13c-.44.27-.89.55-1.26.92-.35.35-.65.82-.98,1.33-.36.57-.74,1.15-1.2,1.57-.43.39-1.08.78-1.77,1.19-1.32.79-2.81,1.68-2.82,2.64,0,.55.49,1.15,1.48,1.78l.26.17-.19.25c-.2.26-.42.52-.65.8-.73.87-1.49,1.76-1.53,2.79-.02.44.23.74.5,1.06.2.25.41.5.47.81.06.34-.04.68-.13,1.04-.12.47-.25.96-.09,1.51.18.62.82.84,1.5,1.07.49.17.95.32,1.27.64.25.25.41.59.59.95.41.83.77,1.55,2.05,1.15,1.02-.32,1.26-1.24,1.51-2.22.13-.5.25-.97.49-1.36.13-.22.33-.32.53-.42.27-.14.5-.26.61-.66.34-1.19-.36-2.85-.74-3.75-.26-.62-.35-.82-.21-1.01.09-.12.23-.16.44-.23.51-.16.98-.35,1.03-.9l-1.53-2.46.17-.16c.97-.93.47-1.7-.44-2.88-.65-.85-1.39-1.82-.84-2.82,2.88-5.25,12.85-5.99,17.83-3.7l.55.25-.54.27c-3.95,2-9.95,5.39-10.29,6.52-.46,1.52.76,2.43,2.06,3.38.64.47,1.3.96,1.73,1.53l.39.53-.66-.07c-.77-.08-2.61,1.28-4.78,3.56-2.52,2.63-4.15,5.02-4.27,5.65,1.37.38,2.66-.15,4.02-.72.99-.41,2.01-.84,3.09-.9l.33-.02-.03.33c-.09,1.21-.1,4.75.7,5.44.07.06.14.09.21.09h0c4.03-4.7,8.98-7.78,14.21-11.05.7-.44,1.4-.87,2.1-1.31.68-.89.93-1.68.74-2.35-.36-1.31-2.24-2.14-3.97-2.81l-.59-.23,6.56-3.5,3.68,2.08.1.19-.04.14c-.06.16-.2.22-.51.34-.66.27-2.03.83-2.22,2.27-.16,1.23.54,7.19.88,8.78.74,3.5,6.21,4.37,9.48,4.9l.61.1c3.14.51,6.36.73,9.38.89l.41.02-.15.38c-.56,1.41-1.33,3-2.13,4.68-1.89,3.94-4.03,8.4-4.25,11.89-.05.86.24,1.45.85,1.7.8.33,1.96-.03,2.67-.81.32-1.45,4.35-13.73,5.81-14.35.06-.03.13-.04.19-.04.09,0,.18.03.26.09l.07.05.03.08c.41,1.11.91,2.2,1.39,3.26.46,1.02.94,2.07,1.35,3.14.2.52.45,1.39.74,2.4.69,2.35,1.84,6.28,2.71,6.7.69.33,1.26.33,1.71,0,.67-.5,1-1.74.79-3.01-.62-3.79-2.82-8.25-4.76-12.18-.63-1.27-1.22-2.46-1.73-3.58l-.18-.4.43-.02c3.84-.14,6.94-.43,9.77-.89.23-.04.47-.08.72-.12,3.31-.52,7.84-1.24,8.97-4.54.31-.91,1.32-7.76,1.28-8.73-.05-1.32-.95-2.35-2.27-2.62l-.17-.03-.4-1.34h.39c.5,0,1.13-.37,1.74-.74.69-.4,1.33-.79,1.91-.74.49.04,4.59,2.44,4.9,2.7.14.11.55.46.46.91-.1.55-.86.81-1.66,1.09-.42.15-.86.3-1.09.46-.54.39-.88.93-.98,1.56-.12.74.1,1.56.6,2.24.42.57,3.16,2.2,5.59,3.64,2.09,1.25,4.07,2.42,5.01,3.15.59.46,1.92,1.78,3.21,3.06,1,1,2.14,2.12,2.33,2.24.25.1.44.11.57.02.41-.27.42-1.46.44-2.5.02-1.37.04-2.67.79-3.06l.05-.02c.36-.11,1.08.17,2.41.72,1.25.51,3.58,1.45,3.99,1,.06-.06.2-.35-.34-1.38-1.57-3.01-4.83-6.23-8.29-8.19l-.34-.19.27-.27c.64-.63,1.28-1.14,1.85-1.6,1.02-.81,1.83-1.46,1.83-2.17,0-.65-.63-1.45-1.98-2.53-1.28-1.02-2.74-1.81-4.16-2.57-1.41-.76-2.87-1.54-4.14-2.55l-.41-.33.49-.18c4.7-1.68,13.48-1.59,17.05,3,1.36,1.74.62,2.57-.09,3.38-.35.39-.7.8-.87,1.35-.17.55-.09.99-.01,1.42.06.33.11.64.04.96-.08.35-.3.71-.52,1.05-.29.45-.58.92-.45,1.27.12.3.58.58,1.36.8l.36.1-.19.32c-.77,1.34-1.44,2.68-1.14,4.27.09.45.31.56.59.7.2.09.42.2.56.43.25.4.37.9.49,1.42.23,1.02.45,1.98,1.64,2.3,1.12.3,1.63-.62,2.1-1.67.17-.39.29-.64.47-.77.3-.21.66-.24,1.01-.26.63-.04,1.17-.08,1.57-1.04.23-.54.15-.95.07-1.43-.06-.35-.13-.71-.07-1.14.04-.33.19-.6.34-.87.22-.39.44-.79.37-1.47-.07-.66-.83-1.63-1.33-2.27-.42-.54-.56-.72-.56-.91,0-.23.2-.4.46-.64.23-.2.51-.45.58-.68.64-2-1.15-2.96-2.87-3.88-.36-.19-.7-.37-1.01-.56l-.05-.04-6.82-6.81,1.3.51c3.92,1.53,8.94,5.04,10.93,8.79.27.51.54,1.36.85,2.34.58,1.84,1.36,4.35,2.36,4.62.28.08.64.09.99.11.52.02,1.06.05,1.45.28.41.24.64.79.88,1.38.27.65.54,1.32,1.01,1.44.35.09.85-.13,1.47-.64l.09-.07h.11c.29.02.44.31.69.84.43.88,1.08,2.22,2.42,2.3,1.09.07,1.32-.35,1.56-.8.16-.29.33-.61.73-.75.45-.15,1.01-.02,1.66.13,1.08.25,2.31.53,3.24-.45.32-.34.39-.69.46-1.07.05-.29.11-.58.28-.84.21-.32.62-.55,1.11-.82,1.25-.69,2.03-1.25,1.38-2.56-1.96-.19-1.98-1.2-1.99-2.01,0-.51-.02-.95-.42-1.27-1.06-.86-2.49.13-3.64.93-.88.61-1.58,1.09-2.05.65l-.1-.09v-.14c.05-.59-.07-.99-.36-1.21-.78-.6-2.7.05-3.84.44-.93.32-1.32.45-1.54.21l-.07-.08v-.11c0-.16,0-.34,0-.52.04-.79.03-1.32-.43-1.48-.75-.12-1.59-.08-2.4-.04-1.08.05-2.2.1-3.21-.2-1.36-.4-2.85-2.1-4.43-3.91-1.87-2.14-3.99-4.56-6.01-4.85l-.28-.04.03-.28c.08-.65,1.04-.87,2.87-.66,1.5.18,4,1.48,5.04,2.62.67.73.78,1.58.89,2.39.15,1.15.29,2.14,1.84,2.89,1.84.9,3.3.99,4.11.28.71-.63.89-1.86.45-3.14-.45-1.31-1.61-2.75-3.5-2.87-.39-.03-.78.03-1.15.09-1.03.16-2.1.32-3.12-1.4l-.31-.52.6.08c1.15.16,2.49.3,3.9.44,7.9.8,18.71,1.89,21.03,9.48.24.77.34,1.59.45,2.37.3,2.23.52,3.85,3.13,3.62l.22-.02.08.21c.19.5.37,1.17.59,1.96.61,2.23,1.54,5.6,3.05,5.98.6.15,1.31-.19,2.1-1.01l.22-.23.21.24c.95,1.12,1.82,1.69,2.58,1.71.51,0,1-.23,1.47-.73,1.62-1.74.18-3.3-.88-4.43-.62-.66-1.11-1.19-.69-1.62l.05-.05.06-.02c1.72-.62,1.98-1.15,1.99-1.41.02-.88-2.4-1.86-3.57-2.34-1.05-.43-1.33-.54-1.33-.84v-.14s.11-.09.11-.09c.56-.46.88-1,.92-1.55.04-.57-.21-1.18-.74-1.75-.67-.73-1.44-.69-2.17-.64-.56.03-1.08.07-1.52-.24-.28-.19-.37-.54-.46-.88-.11-.43-.21-.72-.47-.8-.53-.18-1.53-.24-2.5-.29-.86-.05-1.74-.1-2.38-.24-.05-.01-.1-.02-.16-.03-.41-.07-1.26-.23-1.13-.97l.05-.27.28.04c.88.12,1.79.21,2.66.29,1.88.18,3.82.37,5.72.9.69.19,1.61.63,2.59,1.1,1.75.84,3.93,1.88,4.81,1.43.26-.13.4-.47.51-.77.13-.32.24-.65.59-.64.43,0,.83.29,1.29.61.68.47,1.44,1.01,2.53.94.85-.05,1.1-.47,1.34-.87.16-.26.32-.53.63-.62.31-.09.64-.02,1,.05.62.12,1.26.25,1.93-.42.44-.44.37-.85.27-1.37-.07-.38-.15-.81.04-1.24.14-.33.47-.62.81-.93.49-.44,1.01-.9,1.02-1.46.01-.36-.19-.75-.61-1.19Zm-208.14,3.01c-.27.75-1.61.73-3,.59l-.2-.02c-.7-.06-2.47-.47-4.19-.87-1.27-.3-2.86-.67-3.09-.66-.39.11-.43.64-.41,1l9.63,2.09-4.71,2-1.56-1.94-4.19,2-.49-1.62-3.69-.06,1.2-2.39c-1.41-.28-2.44-1-2.94-2.04l-.17-.37,4.07-.47.68-1.59.24.06c.81.2,1.51.67,2.13,1.09.71.47,1.31.88,1.83.74.39-.1.76-.52,1.13-1.27l.08-.16h.18s0,0,0,0c.23,0,.36.19.63.61.43.65,1.15,1.74,2.09,1.7.16,0,.33-.13.51-.26.26-.19.56-.41.94-.33.44.1.89.46,1.37.84.54.43,1.14.91,1.67.94l.39.02-.13.37Zm6.99,10.22l-.16.06c-.94.33-1.2-.4-1.34-.79-.04-.12-.13-.35-.19-.37-.83-.2-1.9,3.71-2.48,5.8-.48,1.75-.9,3.27-1.31,3.81l-.03.03c-.28.27-.55.36-.79.25-.51-.23-.52-1.23-.47-2.51,0-.14.01-.3.01-.41-.94-.1-1.39.5-2.03,1.47-.54.81-1.15,1.73-2.32,1.9l-.22.03-.78-1.72.06-.12c.35-.72.9-1.26,1.44-1.78.76-.74,1.48-1.44,1.51-2.56,0-.14-.02-.23-.07-.28-.13-.13-.52-.1-.84-.08-.44.03-.9.06-1.19-.21-.15-.14-.23-.33-.24-.57v-.18s4.07-2.14,4.07-2.14l-.44-3.59,4.5-.81.04-1.56h2.84s-4.51,5.53-4.51,5.53c0,0,.01.02.02.03.26.31.27.32.64.13.56-.29,1.25-1.1,1.99-1.97.88-1.03,1.79-2.09,2.68-2.52l.5-.24-.9,5.38Zm20.1-7.27l-.03-.31c-.14-1.25,0-2.23,1.1-2.98l.26-.18,1.73,2.95-3.05.51Zm4.17-.93l-2.21-3.78,2.42.73-.21,3.05Zm-4.72,3.77l3.21.49-.22.37c-.6,1.01-2.01,1.99-3.29,2.28l-.45.1.75-3.24Zm2.45,4.86c-1.14.34-2.13.63-2.15,2.45v.36s-.35-.08-.35-.08c-2.39-.53-2.5-.27-2.92.69-.16.35-.35.79-.69,1.3-.32.47-.65.72-1.01.77-.04,0-.08,0-.11,0-.5,0-.92-.39-1.32-.76-.3-.28-.6-.56-.88-.63-.34-.08-.91.1-1.47.28-.9.28-1.91.6-2.6.09-.29-.22-.39-.66-.49-1.12-.08-.35-.16-.71-.31-.95-.25-.39-.65-.55-1.07-.73-.48-.2-1.03-.43-1.31-1.04l-.17-.38.41-.03c.22-.02.51,0,.81,0,.71.03,1.66.08,1.98-.31l-1.58-2.58.18-.16c.51-.46,1.41.12,2.65.92,1.25.81,2.81,1.81,3.85,1.56.3-.07.54-.24.74-.52l-1.39-2.06,2.34.14,3.91,1.68-.47.29c-.69.43-1.99.78-3.24,1.11-1.23.33-2.5.66-2.94,1.03-.33.27-.34.41-.31.8,3.84-.41,7.66-2.24,11.99-5.74l.44-.36.03.56c.16,2.6-1.27,3.02-2.52,3.39Zm12.36-4.94c-.08.31-.16.61-.12.92.03.21.19.42.34.63.22.29.44.6.38.96-.04.23-.16.41-.29.6-.21.31-.45.65-.44,1.35.01.68.3,1.31.6,1.98.27.59.54,1.19.63,1.85l.03.23-.22.08c-1.19.43-1.3,1.17-1.43,2.11-.11.77-.24,1.64-1.03,2.35l-.29.26-1.42-3.12-1.36.14-1.13-.7.7-2.67-1.5-1.23.07-.19c.22-.6.76-1.22,1.28-1.82.37-.43.73-.84.86-1.14.46-1.01-.01-1.31-.61-1.69-.4-.25-.89-.57-.76-1.15l.03-.12,2.88-1.69v7.22h.95c-.09-1.33-.37-6.29.47-7.19.16-.17.33-.2.45-.19h.07s.06.04.06.04c1.22.71,1.01,1.52.83,2.18Zm109.14-1.84l.05.11-.04.11c-.09.23.1.62.23.9.11.22.18.38.18.53v5.3l.61-.09.18-7.58,2.77,2.37-1.51,2.27,2.4,3.69-.34.13c-1.2.45-1.04,1.11-.79,2.2.15.63.31,1.34.17,2.07l-.05.28-2.35-.39c-.63,2.42-.98,2.89-1.41,2.89h0c-.52,0-.71-.77-.99-1.95-.15-.6-.3-1.22-.49-1.69-.09-.22-.31-.32-.54-.42-.25-.11-.52-.23-.59-.54-.18-.78.22-1.69.6-2.57.37-.85.75-1.74.5-2.31-.13-.29-.41-.51-.87-.67l-.45-.16.34-.33c.64-.61,1.24-1.57,1.1-2.13-.02-.09-.09-.35-.6-.49l-.38-.1.26-.43c.46-.78.97-1.49,1.48-1.46.16.01.38.09.53.44Zm8.59,3.09l.49.5c1.72,1.78,10.05,5.98,11.46,5.23.16-.24.12-.37.1-.41-.19-.54-1.75-.92-2.77-1.17-.57-.14-1.07-.26-1.4-.4-1.14-.49-2.22-1.11-3.25-1.72-.87-.51-1.78-1.04-2.71-1.47l-.22-.1.31-1.23h3.53s-.1.37-.1.37c-.29,1.03-.27,1.72.07,2.02.67.59,2.68-.25,3.89-.75,1.09-.46,1.54-.64,1.8-.39l.13.13-.79,2.17c.14.19.32.31.54.37,1.04.25,2.83-.94,4.14-1.8,1.24-.82,1.86-1.23,2.21-.85.19.2.28.42.26.64-.03.41-.4.71-.75,1-.47.39-.75.64-.62.97.17.4.7.42,1.49.41.55,0,1.11-.02,1.5.24l.27.18-.2.25c-.32.4-.75.56-1.13.7-.32.12-.62.23-.85.47-.28.28-.43.8-.57,1.25-.16.51-.29.95-.6,1.16-.72.49-1.65.25-2.46.03-.5-.13-.98-.26-1.35-.21-.42.05-.71.38-1.03.71-.38.41-.8.87-1.48.87-.09,0-.19,0-.29-.03l-.14-.02-.07-.12c-.15-.28-.28-.54-.4-.78-.95-1.86-1.24-2.42-3.75-1.8l-.36.09v-.37c-.03-1.85-1.05-2.09-2.23-2.37-1.26-.3-2.69-.64-2.65-3.06v-.7Zm4.28-5.01l-.03.1c-.17.59-.8.88-1.42.88-.12,0-.23-.01-.35-.03-.71-.13-1.13-.62-1.07-1.24v-.08s1.66-2.27,1.66-2.27l1.2,2.64Zm-4.33-2.99c.29-.3.82-.63,1.74-.53l.54.06-2.71,3.25-.09-.65c-.13-.89.06-1.64.52-2.12Zm9.99-103.16c.95-1.53,4.17-2,5.51-1.98,3.31.06,6.31,1.55,8.67,4.32,2.97,3.49,4.47,8.62,3.83,13.08l-.02.16-1.42.66c.1,3.17-.56,6.5-2.02,10.18l-.13.33-.3-.19c-.22-.14-.54-.27-.85-.4-.43-.18-.87-.36-1.14-.6-.47-.42-.2-1.85.32-4.15.18-.79.34-1.54.37-1.93.39-4.93-.55-11.94-4.5-15.47-2.1-1.88-4.78-2.51-7.98-1.9l-.21.04-.1-.19c-.47-.89-.27-1.56-.02-1.96Zm-2.55,33.19c-1.67.69-3.26,1.34-4.43,1.94l-.61.31.2-.65c1.01-3.31,3.76-6.65,6.67-10.19,3.61-4.38,7.34-8.91,7.34-13.25,0-1.87-1.08-4.44-2.83-5.33-.48-.24-.97-.32-1.4-.39-1.2-.19-1.96-.48-1.63-2.68l.03-.22.22-.03c3.24-.44,6.01.85,8.01,3.73,3.65,5.27,3.82,14.31,1.53,18.58-1.92,3.57-8.12,6.13-13.1,8.18Zm.46.94l-.48,2.69-7.93,4.37-.02-.53c-.05-1.51-.1-3.21,1.05-4.43l.4-.42.27,1.59s0,0,.01,0c.48,0,2.29-1.07,3.39-1.73,1.25-.74,2.33-1.38,2.88-1.48l.41-.07Zm-2.46-19.19c-.46-.18-.89-.36-1.33-.23-.63.17-.73.52-.84.92-.11.38-.25.89-.98.89-.07,0-.14,0-.22-.01l-.21-.02-.52-2.58.43.08c1.29.25,2.11-.6,2.34-1.57.24-.97-.1-2.13-1.2-2.46-.58-.17-1.34-.03-1.95.09-.61.12-1.05.2-1.34.02-.78-.49-.88-1.03-.82-1.41.24-1.48,3.41-2.83,4.38-3.06,1.41-.33,1.78.11,2.01.54.01.02.03.05.04.08.3-.4.74-.68,1.17-.96.59-.39,1.11-.73,1.22-1.28-.2.02-.57.13-.84.2-.83.24-1.98.56-2.24-.33l-.08-.28,4.81-1.31.09.26c1.08,3.12,1.24,5.72-1.46,8.24,0,.45.21.6.48.78.3.21.76.52.44,1.3-1.11,2.75-2.15,2.59-3.38,2.1Zm-5.13,6.74c.81-1.13,2.02-1.68,3.19-2.21.69-.31,1.34-.6,1.91-1,1.75-1.24,3.55-3.57,5.23-6.75l-1.12-1.09,1.77-4.04.22.03c1.95.3,3.23,1.13,3.8,2.46,1.37,3.19-1.86,8.43-3.32,10.53-3.06,4.43-7,9.88-10.27,14.24-.23.31-.54.54-.88.78-.43.32-.92.67-1.32,1.28-.78,1.17-1.09,2.13-1.03,3.22v.12s-.08.09-.08.09c-.12.13-.28.2-.45.2-.05,0-.1,0-.15-.02-1.25-.28-3.23-4.61-3.31-4.85-1.92-5.97,1.94-7.88,6.02-9.91.61-.3,1.25-.62,1.86-.95v-.83s-2.3-1.02-2.3-1.02l.21-.29Zm-19.03-23.56l.06-.06.08-.02c2.22-.57,3.71-.54,4.7.09,1.2.76,1.48,2.25,1.81,3.98.17.88.34,1.79.65,2.72,1.02,3.05,4.35,11.01,6.56,12.63.28.2,1.25.68,2.19,1.15,2.53,1.25,2.72,1.39,2.72,1.67v.11s-.07.08-.07.08c-1.25,1.47-1.98,2.52-.79,3.68l.3.29-4.52,2.11-.13-.06c-1.48-.73-2.51-1.96-3.5-3.16-1.33-1.6-2.59-3.11-4.83-3.35l-.49-.05.49-.7c.5-.7.8-1.13.91-2.08.4-3.36.18-9.36-1.59-12.2-.16-.26-.71-.9-1.34-1.64-2.73-3.19-3.78-4.62-3.23-5.19Zm-.46,53.83c.54,4.18,1.1,8.5,1.37,13.02.58,9.57-1.45,16.38-6.38,21.42-4.45,4.54-10.9,7.26-17.73,10.13-4.24,1.78-8.63,3.63-13.01,6.06l-8.68,5.18.09-.61c.04-.26.01-.59-.02-.93-.06-.69-.12-1.46.34-1.98.63-.7,5.82-3.6,6.04-3.72,2.62-1.47,6.2-3.03,9.98-4.69,9.44-4.13,21.19-9.28,24.47-15.84,3.4-6.78,1.86-17.07.51-26.16-.57-3.82-1.11-7.44-1.27-10.59-.69-13.87.98-25.66,5.12-36.04l.06-.15,3.33-.54-.17.47c-2.4,6.55-4.92,14.37-5.42,22.67-.48,8.06.41,14.98,1.36,22.31Zm-89.63-32.97c-.58-2.64-1.44-5.17-2.26-7.62-.48-1.43-.98-2.91-1.43-4.41l-.11-.39h.4c2.91.1,3.62,2.41,4.31,4.64.11.36.22.73.35,1.09,3.92,11.59,3.8,25.34,3.01,34.83-.23,2.74-.68,5.59-1.16,8.6-1.27,8-2.59,16.27.29,23.22,3.09,7.43,14.47,12.35,24.51,16.69,3.82,1.65,7.43,3.21,10.16,4.75.36.2.75.41,1.17.63,2.51,1.32,5.95,3.12,5.07,6.24l-.12.41-.34-.26c-5.54-4.18-12.11-7.01-18.47-9.74-5.19-2.24-10.56-4.55-15.31-7.58-14.02-8.96-12-21.87-9.85-35.54.65-4.11,1.31-8.37,1.51-12.51.39-8.14-.21-16.11-1.74-23.06Zm27.23,75.28c-4.95-2.1-10.07-4.28-14.59-7.12-12.48-7.86-10.66-18.83-8.73-30.45.52-3.13,1.06-6.37,1.32-9.6,1.31-15.87-.31-28.94-4.94-39.98l-.07-.16,6.58-8.47h.14c6.3-.12,12.53-2.07,18.57-3.96,5.12-1.6,10.42-3.26,15.68-3.76,8.49-.81,16.25,1.54,23.75,3.82,5.67,1.72,11.52,3.5,17.71,3.93h.12s7.03,8.18,7.03,8.18l-.07.17c-4.37,10.12-6.12,22.14-5.36,36.75.16,3.12.7,6.67,1.28,10.43,1.29,8.46,2.75,18.05-.07,24.76-2.82,6.72-13.07,11.09-21.3,14.61-1.92.82-3.74,1.6-5.23,2.32-4.56,2.19-9.4,4.64-13.9,7.7l-.17.12-.17-.12c-5.28-3.91-11.54-6.57-17.59-9.15Zm58.15-98.56c.5-.12,1.29.75,4.48,4.89,1.19,1.55,2.32,3.01,2.74,3.36l.06.05.84,2.07-.51-.08c-.26-.04-.65-.01-1.03.02-.63.05-1.29.1-1.71-.14-.43-.25-4.52-5.61-4.83-6.03-.08-.11-.18-.24-.29-.37-.43-.54-.91-1.16-.93-1.71-.02-.49.62-1.91,1.18-2.05Zm-79.48-.98c6.53-.37,12.87-2.22,19-4.01,7.69-2.24,15.64-4.55,24.03-3.99,5.61.38,11.06,2.16,16.34,3.87,6.06,1.97,12.34,4.01,18.81,3.92h.34s-.05.34-.05.34c-.3,1.95-1.17,2.65-3.19,2.59-5.33-.16-11.06-2.07-16.59-3.92-5.1-1.7-10.37-3.46-15.33-3.86-8.31-.67-15.48,1.5-23.07,3.79-4.47,1.35-9.08,2.74-13.91,3.48-.39.06-.81.14-1.24.23-.89.18-1.8.36-2.62.36-.68,0-1.3-.13-1.8-.49-.55-.41-.89-1.07-.99-1.99l-.03-.31.31-.02Zm-2.51,1.64c.06-.07.12-.13.17-.19.26-.3.55-.64,1.25-.48l.17.04.71,2.69-.17.12c-.67.46-1.5,1.62-2.38,2.85-1.59,2.21-3.35,4.67-5.22,4.67-.36,0-.73-.09-1.09-.3-.19-.11-.44-.28-.47-.56-.03-.29.2-.49.38-.65.08-.07.15-.14.21-.2.52-.66,1.1-1.41,1.7-2.2,1.54-2.02,3.29-4.3,4.74-5.79Zm-22.24,23.89c.03-.42.72-.8,3.07-1.89.81-.38,1.57-.73,1.83-.92,1.64-1.17,4.58-7.8,5.79-11.08.37-1.01.61-2.07.85-3.1.49-2.15.96-4.19,2.52-5.12,1.08-.64,2.57-.68,4.57-.12l.06.02.05.04c.43.37-.02,1.09-2.99,4.81-1.16,1.45-2.48,3.1-2.65,3.58-.79,2.26-1.2,9.73-.49,12.07.04.11.18.18.41.29.31.14.72.32.77.83l.02.28-.28.04c-2.29.29-3.91,2.08-5.47,3.8-.89.97-1.8,1.98-2.84,2.72l-.14.1-4.53-2.16.3-.29c.99-.97.49-1.81-.4-3.1-.14-.2-.28-.41-.41-.61l-.05-.08v-.1Zm-6.27-2.41c.75.58,1.63,1.02,2.48,1.44,1.24.62,2.52,1.26,3.51,2.36l.06.06v.08c.07.32.03.56-.12.73-.24.27-.64.25-1.02.22-.25-.02-.51-.03-.7.03-.31.11-.51.34-.75.61,0,0,0,0,0,0,.87.94,2.04,1.44,3.28,1.96,1.16.49,2.35,1,3.33,1.91,1.38,1.28,2.08,2.86,2.09,4.68,0,2.48-1.39,5.31-3.64,7.41l-.42.39-.06-.58c-.22-1.96-1.22-2.96-2.29-4.02-.52-.51-1.05-1.05-1.52-1.7-1.31-1.85-2.71-3.74-4.05-5.56-2.1-2.84-4.26-5.77-6.21-8.68-2.06-3.08-4.25-7.33-3.04-10.11.59-1.34,1.91-2.18,3.93-2.5l.22-.04,1.76,4.13-1.14.65c-.42.96,3.01,5.49,4.33,6.5Zm-2.57,7.51c2.72,3.34,5.29,6.5,6.29,9.41l.22.64-.62-.28c-1.06-.49-2.35-1-3.71-1.54-5.66-2.26-12.7-5.07-14.44-9.98-1.36-3.84-.92-11.99.83-15.57,1.35-2.76,5.52-6.27,8.72-5.28.26.08.58.29.7.85.13.66-.12,1.65-.4,1.88-.28.24-.72.29-1.23.36-1.13.14-2.68.33-3.58,2.6-2.15,5.41,2.61,11.26,7.22,16.91Zm.68,9.1l.02-.26h.26c.88-.01,2.15.8,3.52,1.66.93.59,2.31,1.45,2.77,1.41.03-.23.09-.6.39-.75.18-.09.4-.08.64.04.77.42,1.47,3.02,1.08,3.98-.12.31-.36.47-.64.47-.08,0-.15-.01-.24-.03-.41-.12-6.41-3.61-6.75-3.94-.75-.7-1.14-1.65-1.05-2.58Zm-1.3-31.65c.35-.42.99-.54,1.84-.36,1.14.24,2.62,1.06,2.81,1.74.06.21,0,.42-.15.57-.17.17-.36.08-.76-.11-.5-.24-1.44-.69-1.96-.49-.07.03-.13.07-.18.12.21.16.47.37.76.61.51.42,1.45,1.22,1.72,1.19.04,0,.15-.09.22-.15.26-.2.64-.49,1.29-.44,1.01.09,3.48.92,4.39,2.1.3.38.41.78.35,1.17v.06s-.85,1.35-.85,1.35l-.22-.08c-1.4-.5-2.74-.32-3.57.48-.54.52-.76,1.22-.57,1.84.24.8,1.07,1.36,2.34,1.59l.32.06-.95,3.23-.27-1c-.51-1.9-1.3-1.69-2.73-1.32-.53.14-1.13.29-1.77.33h-.19s-1.82-3.44-1.82-3.44l1.61-1.08c-.09-.22-.51-.64-.78-.91-.59-.6-1.26-1.28-1.44-2.03-.23-1.02-.22-4.1.56-5.03Zm-14.64,23.89l-.15-.21c-2.16-3.01-2.29-6.94-2.24-10.38-.07-.3-.45-.35-1.12-.34-.32,0-.53,0-.67-.12-.86-.82.96-8.02,1.28-8.85,2.17-5.64,8.32-10.2,14.86-8.07,1.07.35,2.09.78,2.28,1.59.12.51-.11,1.04-.7,1.64l-.1.1-.14-.02c-3.63-.45-6.53.57-8.61,3.01-3.96,4.67-4.16,13.82-2.34,20.06l.06.22-2.41,1.38Zm8.83,74.89l-.44.4-.04-.59c-.07-.97-.41-2.66-1.9-3.08-.34-.09-.61-.05-.76.13-.13.15-.14.39-.04.6.08.17.37.55,1.21.51l.41-.02-.75,2.54-1.7-.02.27-.44c.33-.54.4-1.04.23-1.49-.26-.65-1.04-1.22-2.11-1.54-.41.17-.57.33-.58.43-.03.25.62.7,1.05.99.18.12.35.24.5.36l.14.11-.28,1.45-.09.07c-.14.11-.35.21-.64.21-.12,0-.26-.02-.42-.06-1.23-.36-2.76-2.21-3.05-3.01l-.41-1.08c-.63-1.67-1.42-3.76-1.87-5.22-.35-1.13-.48-2.26-.6-3.36-.15-1.36-.3-2.64-.84-3.92l-.16-.39.42-.02c1.7-.07,2.77-.46,3.17-1.17.71-1.26-.56-3.51-1.78-5.69-.79-1.41-1.54-2.74-1.82-3.88-3.04-.67-3.11-3.46-2.77-5.92l-1.44-.61,1.54-8.11c-3.5.73-6.84.05-8.61-1.75-1.41-1.44-1.8-3.52-1.15-6.02.77-2.92,3.33-4.48,5.8-5.98,3.48-2.11,6.76-4.1,5.89-9.63-.18-1.12-1.79-5.31-2.5-5.74-.17-.1-.35-.08-.68-.01-.58.11-1.39.27-2.49-.76-.29-.27-2.82-3.87-2.34-4.49l.18-.23,1.07.8.61-.39-.39-6.96.36.06c2.62.46,3.72,3.47,3.9,6.23l2.06-.02.08.17c.48,1.05.02,2.52-.35,3.71-.2.64-.39,1.24-.34,1.52.13.84.59,1.8,1.08,2.82.72,1.5,1.54,3.21,1.6,5.11.14,4.67-3.19,6.89-6.42,9.03-1.93,1.28-3.74,2.49-4.68,4.15-1.02,1.81-.82,3.79.51,5.18,1.43,1.48,3.69,1.75,5.75.68,4.67-2.42,9.32-15.91,8.9-21.37-.05-.64-.21-1.41-.38-2.23-.55-2.64-1.24-5.93,1.55-7.22l.1-.03c.94-.09,1.66.69,2.29,1.37.29.31.56.61.83.81,1.24.91,2.83,1.92,4.48,2.86.42.24.99.45,1.6.66.93.34,1.89.68,2.45,1.21.7.65.89,1.56,1.06,2.37.1.5.2.98.41,1.35.39.54,7.79,5.03,9.23,5.68,1.08.48,2.16.78,3.21,1.07,3.18.87,5.92,1.63,5.26,7.06l-.05.43-.38-.22c-.44-.25-.57-.67-.68-1-.15-.46-.22-.68-.9-.55,0,.16.03.48.06.7.09.73.19,1.55-.25,1.92-.22.18-.51.23-.88.12l-.17-.05-.53-2.45c-.41.4-.46.92-.51,1.54-.03.37-.07.76-.19,1.14l-.14.44-.34-.32c-.83-.77-.92-1.82-1-2.74-.09-1.02-.17-1.9-1.09-2.41-2.04-.62-4.09-1.36-6.08-2.07-3.44-1.24-6.99-2.52-10.55-3.19l-.43-.08.25-.37c.11-.17.21-.3.31-.43.42-.57.51-.69.16-1.51-.39-.9-1.34-1.78-2.36-2.72-1.99-1.84-4.24-3.92-3.31-6.99-.2,0-.37.06-.52.18-.47.38-.66,1.31-.62,2.05.12,1.96,2.96,4.85,4.65,6.58,1.12,1.15,1.34,1.39,1.35,1.64,0,.14-.07.29-.23.59-.35.7-1.01,2-.19,2.71.27.2.48.1.96-.19.37-.22.79-.48,1.32-.42,1.45.15,3.26.9,5.18,1.7,1.83.76,3.73,1.55,5.23,1.75l.33.04-.09.32c-.82,2.98-2.95,3.57-5,4.14-1.34.37-2.73.76-3.85,1.8-1.14,1.07-3.97,5.15-4.21,6.46-.26,1.38.59,3.29,1.41,5.14.66,1.48,1.34,3.01,1.5,4.36.3,2.45.04,6.07-1.22,8.6-.33.66-.81,1.28-1.28,1.87-1.18,1.5-2.21,2.8-.99,4.71l.38.6-.7-.17c-2.1-.5-3.82-.1-5,1.16-1.52,1.63-1.95,4.61-1.07,7.41,1.15,3.67,2.5,3.87,4.94,4.23.88.13,1.89.28,3.06.61l.14.04.05.13c.48,1.16.13,2.56-.88,3.47Zm16.63-34.79c.09.33.19.75.18,1.33-.02,1.87-1.17,2.72-2.19,3.47-.9.67-1.62,1.2-1.51,2.29.19,1.95,5.41,5.92,7.48,6.94.39.19.94.37,1.52.55,1.75.56,4.16,1.33,3.63,3.33l-.14.53-.36-.42c-.46-.53-2.17-1.67-2.5-1.53-.13.14-.14.25-.13.32.02.33.51.77.95,1.16.61.54,1.24,1.09,1.21,1.77-.02.39-.25.73-.7,1.06l-.08.06h-.1c-.21,0-.37-.18-.95-.82-.53-.59-1.78-1.96-2.25-1.85-.1.03-.17.19-.2.32l-.04.09c-.15.21.53.93.89,1.31.58.62,1.08,1.16.93,1.63-.08.24-.29.4-.65.47-.07.01-.14.02-.21.02-1.25,0-2.65-2.22-4.34-5.11-.56-.95-1.04-1.78-1.38-2.2-.85-1.05-4.81-4.99-5.72-5.35-.33-.13-.69-.15-1.05-.17-.61-.03-1.3-.06-1.78-.72l-.15-.21.19-.18c1.02-.96,1.35-1.93.94-2.71-.57-1.09-2.41-1.64-4.19-1.26l-.4.09.05-.41c.25-2.02-.59-3.94-1.41-5.79-1.2-2.72-2.44-5.53.13-8.36l.23-.25.21.26c2.22,2.69,6.66,4.91,9.81,6.34l.26.12c1.51.69,2.93,1.34,4.66,1.21l.88-.07-.66.58c-1.31,1.14-1.23,1.45-1.06,2.14Zm34.16,46.39l.04.17c.35,1.33-.8,1.78-1.72,2.13-.35.14-.72.28-1.01.46-4.54,2.79-8.57,5.38-11.93,8.96l-.52.55v-.75c.06-2.37-.23-3.64-.93-4.11-.82-.56-2.4-.07-4.67.88l-.17.07-.14-.13c-.08-.07-.13-.18-.12-.3,0-.83,3.06-4.06,3.23-4.21.68-.62,3.32-2.6,4.39-2.8.62-.12,1.34.34,2.17.87,1.04.67,2.22,1.43,3.53,1.31.85-.08,1.83-.73,2.87-1.43,1.47-.98,3.13-2.1,4.81-1.71l.17.04Zm-.87-1.95l.47.27-8.44,4.21.59-.9c.87-1.33,1.83-2.67,2.99-3.47,1.38-.95,2.86-.99,4.39-.11Zm3.95-6.31c-1.07.48-2.18.98-3.17,1.55-3.75,2.19-7.01,5.05-9.43,8.27l-.17.23-7.5-5.52-.02-.12c-.22-1.28,6.02-4.76,6.09-4.79,6.27-3.3,12.39-4.17,18.74-2.68l.58.14-.47.37c-1.33,1.06-3.02,1.82-4.65,2.54Zm10.92.89l-.04.05-.06.03c-.73.39-1.41.56-2.05.56-1.62,0-2.95-1.07-4.12-2.15l-.21-.2.2-.21c.92-.99,4.91-.22,6.03.72.44.37.53.82.25,1.2Zm1.61.18v3.37l-2.8-2.24,2.8-1.13Zm-9.77-.3l.27-.51c4.87,1.93,9.61,5.03,14.08,9.19l.45.42-.62.08c-.18.02-.34.03-.49.03-.52,0-.94-.13-1.46-.44-.66-.38-1.68-1.31-2.76-2.29-.98-.89-1.99-1.8-2.76-2.34-1.23-.86-2.55-1.64-3.82-2.39-.95-.56-1.94-1.15-2.89-1.76Zm.26,4.7l.07-.08c.72-.78,1.52-1.19,2.39-1.23,1.92-.08,3.81,1.66,5.47,3.2.52.48,1.01.94,1.47,1.3l.54.43-.68.09c-.06,0-.13.01-.21.01-1.71,0-7.44-1.84-8.72-2.99-.23-.21-.35-.41-.34-.62v-.11Zm21.29,17.92c-.04.07-.07.15-.11.22h0c-.39.88-.85,1.76-1.3,2.6-.58,1.1-1.18,2.23-1.63,3.4-.2.51-.57,1.74-.96,3.03-.92,3.03-1.5,4.89-1.82,5.23-.39.41-.75.5-1.13.5-.15,0-.31-.02-.48-.03l-.34-.03.09-.33c1.56-5.59,3.1-9.76,5.01-13.53l.04-.07.07-.04c.17-.1.4-.61.59-1.02.37-.81.79-1.73,1.48-1.46.36.14.58.32.68.56.13.34-.04.68-.19.98Zm9.06,13.43c.02.14.05.28.08.41.13.61.27,1.23-.62,1.83l-.28.19-.15-.3c-.93-1.9-1.57-3.96-2.19-5.96-.54-1.73-1.09-3.51-1.83-5.19-.63-1.44-1.42-2.84-2.18-4.19-.46-.82-.94-1.67-1.38-2.53l-.19-.36.4-.06c1.06-.16,1.48.25,2,.89,1.73,2.12,5.89,12.49,6.32,15.27Zm14.17-29.05c-.1.6-.14,1.39-.19,2.23-.14,2.46-.32,5.52-1.87,6.69-2.32,1.76-12.98,2.88-15.49,3-.68.03-1.68.06-2.9.06-6.55,0-19.39-.64-22.43-3.44-1.24-1.14-1.36-3.09-1.49-4.97-.08-1.23-.15-2.4-.52-3.32l-.02-.1c-.01-.26.12-.39.2-.45.27-.19.65-.03.95.1l.07.03c4.16,1.7,7.21,2.72,11.42,3.27,11.91,1.54,23.52.29,31.87-3.42l.49-.22-.08.53Zm-.52-3.01l.05.03.03.05c.14.19.18.4.12.63-.21.8-1.79,1.64-3.08,2.21-1.89.84-4.01,1.39-5.8,1.51l-.75.05.7-.73c2.19-2.29,5.5-5.76,8.74-3.74Zm.91-4.23c0,.18-3.95,2.45-5.12,3.17-.84.51-1.7,1.04-2.51,1.61-.75.54-1.51,1.21-2.24,1.87-.88.78-1.8,1.6-2.69,2.17-.11.07-.21.15-.3.22-.27.21-.57.45-1.05.45-.13,0-.28-.02-.44-.06l-.48-.12.34-.36c3.04-3.22,7.26-6.12,12.53-8.61l.42-.2.41-.2.36-.17.42-.21s0,0,.01,0l.11.06c.15.11.23.23.23.38Zm-7.72,1.61l-.35,1.17-1.84.53v-2.8s2.19,1.11,2.19,1.11Zm-1.16-2.08l.28-.17c2.3-1.4,4.23-1.7,6.46-.99l.47.15-.36.34c-1.08,1.02-2.68,2.2-4.25,2.2-.08,0-.17,0-.25-.01-.84-.07-1.56-.49-2.15-1.26l-.2-.26Zm15.39,6.48c.98-.93,2.22-1.21,3.31-.75.57.24,3.6,3.04,3.81,4.02.05.22-.03.36-.1.44l-.15.16-7.17-3.59.3-.29Zm20.27,9.57l.5.75-.84-.32c-2.31-.87-4.02-1.45-4.93-.83-.71.49-1.06,1.77-1.09,4.06v.73s-.5-.53-.5-.53c-1.73-1.87-3.48-3.44-5.48-4.95-.98-.73-2.53-1.59-4.03-2.42-1.86-1.03-3.62-2-4.42-2.78-.08-.08-.16-.15-.23-.21-.44-.39-.66-.64-.49-1.55l.02-.08.06-.06c.46-.49,1.73.13,4.73,1.77,1.39.76,2.97,1.62,3.47,1.66,1.12.08,2.23-.61,3.21-1.22.9-.56,1.68-1.04,2.37-.88l.05.02c2.87,1.24,5.43,3.55,7.61,6.85Zm-3.96-12.31l.25.2-.22.23c-2.08,2.2-4.71,4.12-7.84,5.7l-.29.15-.11-.31c-.82-2.29-2.86-3.8-4.83-5.27-.66-.49-1.34-.99-1.95-1.52l-10.86-5.85.73-.18c10.48-2.62,19.45,2.28,25.13,6.86Zm31.82-11.13c-.5.67-.57,1.76-.22,3.32l.11.48-.47-.13c-4.11-1.14-8.39-1.55-12.54-1.94-1.29-.12-2.62-.25-3.93-.39-1.31-.15-2.62-.35-3.89-.54-3.2-.49-6.51-1-9.85-.63l-.77.09.52-.57c1.17-1.28,4.78-2.83,6.54-2.83.03,0,.06,0,.09,0,1.28.04,2.36.63,3.4,1.2,1.63.88,3.03,1.65,4.94.39l.29-.19.13.32c.45,1.08,1,1.73,1.63,1.93.88.27,1.83-.35,2.52-.8.47-.31.78-.51,1.07-.46.2.04.41.22.86.64.61.57,1.54,1.43,2.4,1.59,1.89.36,2.47-.37,3.27-1.37.26-.33.53-.66.87-.99.32-.31.65-.43.95-.54.53-.2.89-.33.89-1.6,0-.67-.14-1.15-.43-1.42-.42-.4-1.11-.37-1.73-.35-.5.02-.93.04-1.2-.18-.18-.15-.21-.41-.26-.81-.13-1.01-.34-1.94-1.47-2.12-.19-.03-.42.04-.65.1-.26.07-.53.15-.78.1-.33-.07-.61-.33-.9-.61-.38-.37-.82-.79-1.47-.83-.71-.05-1.25.29-1.73.59-.33.21-.64.4-.97.45-.4.06-.78-.02-1.19-.11-.59-.13-1.21-.26-2.03,0-.44.14-.81.5-1.21.89-.35.34-.72.7-1.17.94-1.79.95-3.9,1.53-5.94,2.09-1.92.53-3.9,1.08-5.61,1.92-.66.33-1.29.8-1.9,1.25-1.22.91-2.49,1.86-4.1,1.68l-.58-.06,3.74-4.02.1-.02c3.53-.64,4.65-2.02,4.27-5.3-.1-.89-.33-1.43-.73-1.72-.44-.32-1.12-.36-2.23-.15-.34.1-2.42,1.7-2.72,2.05-.17.7-.01,1.68.15,2.63.17,1.04.33,1.94.06,2.53-.38.83-3.85,3.65-4.72,4.12-3.58,1.91-7.36,2.06-11.37,2.21-4.4.17-8.95.34-13.27,3.07-2.4,1.51-2.31,2.69-2.21,4.06.06.79.12,1.62-.33,2.51-.23.47-1.06,1.08-2.4,2.04-1.28.91-2.86,2.05-3.25,2.81l-.08.16h-.18c-.76,0-1.78.06-2.98.13-1.45.09-3.06.19-4.55.19-1.95,0-3.7-.17-4.66-.77-.25-.16-4.57-3.93-4.8-4.34-.45-.78-.46-1.62-.46-2.44-.01-1.15-.02-2.34-1.22-3.55-1.56-1.57-7.21-3.26-9.68-3.69-2.07-.36-3.97-.38-5.81-.39-2.79-.02-5.43-.05-8.64-1.17-1.56-.55-6.71-4.16-6.43-5.98.04-.28.18-.54.32-.81.19-.36.38-.72.42-1.21.17-2.09-1.67-3.89-3.42-4.2-.52-.09-1.78-.15-2.16,1.28-.28,1.03-.75,3.56.77,4.88.44.38.92.5,1.43.63.42.11.86.22,1.28.48.69.42,1.58,1.49,2.37,2.43.36.43.71.84.98,1.13l.59.61-.84-.13c-1.67-.25-3.04-1.12-4.49-2.05-.94-.6-1.91-1.22-2.98-1.65-1.24-.51-2.64-.88-4-1.25-1.75-.47-3.56-.96-5.1-1.73-.51-.25-1.06-.69-1.59-1.12-.59-.47-1.2-.95-1.6-1.06-.7-.18-1.24-.06-1.77.06-.39.09-.75.17-1.15.13-.42-.04-.78-.26-1.15-.49-.45-.28-.91-.57-1.54-.55-1.2.03-1.72.79-2,1.19-.14.2-.23.34-.41.36-.26.04-.5-.04-.72-.12-.32-.11-.66-.23-1.17-.03-.93.35-1.25,1.09-1.1,2.53l.04.39-.39-.08c-1.15-.23-2.29-.03-2.9.53-.43.39-.61.94-.54,1.63.1.96.72,1.17,1.32,1.37.28.1.55.19.72.36.24.24.36.54.48.83.24.59.49,1.19,1.82,1.53,2.19.56,3.75-.93,4.5-1.64.33-.32.48-.46.68-.46h0c.19,0,.38.14.74.42.58.45,1.46,1.13,2.24,1.01.79-.12,1.25-.83,1.62-1.4.27-.42.49-.75.81-.85.44-.13.82.08,1.18.29.4.23.81.47,1.43.39.96-.11,1.84-.59,2.78-1.09,1.82-.97,3.89-2.08,6.66-.16l4.06,2.26h-1.11c-10.75.05-21.46,1.83-30.67,3.5l-.5.09.17-.48c.51-1.42.56-2.44.14-3.11-.6-.96-2.14-1.12-3.62-1.28-1.13-.12-2.19-.23-2.86-.69-1.71-1.19-2.38-4.87-1.83-7.36.36-1.66,1.21-2.69,2.37-2.9.54-.1,1.12-.07,1.68-.04,1.05.05,2.05.11,2.82-.63.15-.27.03-.53-.2-1.01-.26-.53-.59-1.2-.4-2.1.16-.76.81-1.57,1.44-2.35.43-.53.83-1.03,1.06-1.48.3-.59.5-1.53.7-2.44.37-1.73.73-3.37,1.82-3.58,1.18-.22,1.97.15,2.32.58.25.31.32.67.18,1.01-.11.28-.47.77-1.56.95-.15,1.71,1.11,2.04,2.55,2.42.59.15,1.21.31,1.71.59,3.16,1.69,4.86,4.59,6.49,7.4.73,1.25,1.42,2.43,2.23,3.5,1.4,1.85,3.3,1.34,4.31.87,2.39-1.11,4.24-3.92,3.82-5.77-.3-1.35-2.72-2.35-4.84-3.24-1.27-.53-2.48-1.03-3.26-1.6-.06-.04-5.49-4.47-4.59-5.76l.07-.1.12-.02c1.8-.33,2.89-1.73,3.43-4.4.03-.16-.01-.38-.06-.62-.07-.34-.15-.73-.04-1.12.11-.37.39-.73.69-1.12.58-.74,1.23-1.58.86-2.72-.45-.05-.9.06-1.38.18-.42.1-.85.21-1.29.2-1.48-.04-10.03-4.35-11.27-5.3-.98-.75-1.55-1.6-1.68-2.51v-.09s.03-.08.03-.08c1.02-2.15,2.98-2.73,4.88-3.28,2.18-.64,4.24-1.24,4.86-4.18l.05-.23h.24c1.94.03,3.08.46,3.5,1.31.46.93,0,2.25-1.41,4.14l-.07.06c-.25.18-.56.03-.95-.14-.71-.33-1.69-.77-2.7.13-.4.37-1.02,4.52-.8,5.28.24.79,1.59,1.35,2.42,1.18.27-.09,3.3-1.76,3.65-2.04.37-.6.43-1.85.12-2.55-.07-.15-.25-.3-.42-.44-.27-.23-.58-.48-.57-.87,0-.32.23-.63.7-.98l.19-.15.18.17c1.8,1.68,5.32.85,6.94-.46,1.52-1.22,1.09-4.51.12-6.33-.2-.37-.48-.62-.72-.83-.3-.27-.59-.52-.61-.93-.02-.41.24-.88.88-1.58l.13-.14.18.06c.26.09.48.18.69.27.84.34,1.31.53,2.39.16l.27-.09.53,1.43c.39-.35.58-.65.56-.88-.02-.39-.63-.8-1.42-1.3l-.26-.17.19-.25c.51-.68.78-.77,1.28-.42.1.07.21.15.35.22.24.11.42.21.56.29.14.07.29.16.34.16.06-.02.26-.24.46-.48.1-.12.22-.26.37-.42l-.36-.58-1.61.46.11-.48c.23-.98-.02-1.15-.56-1.52-.26-.18-.58-.4-.88-.75l-.14-.16.67-1.11-.63-.39c-.52.17-1.75,2.11-2.57,3.41-1.31,2.06-2.15,3.33-2.8,3.52-1.21.36-3.59-.52-5.37-1.32l-.48-.21.43-.29c4.36-2.94,7.18-8.92,4.35-13.81l-.17-.29.32-.12c1.1-.42,2.18-1.71,3.22-2.96,1.3-1.56,2.53-3.02,3.96-3.2.28-.03.59.04.93.12.83.2,1.13.19,1.24-.23.19-.68-.26-1.27-.74-1.9-.28-.37-.54-.72-.68-1.09-.93-2.53-.49-5.4-.11-7.94.06-.42.12-.83.18-1.23l.13-.96.42.88c6.08,12.79,5.7,27.84,4.89,38.05-.31,3.84-.83,7.43-1.33,10.9-1.05,7.28-1.96,13.57-.49,19.31,1.61,6.27,6.01,11.25,13.86,15.66,4.06,2.29,8.47,4.2,12.72,6.05,6.81,2.96,13.86,6.02,19.86,10.74,5.9-4.8,13.03-7.86,19.92-10.81,5.04-2.16,10.26-4.4,14.86-7.28,14.9-9.33,13.07-21.32,10.95-35.2-.62-4.05-1.26-8.23-1.48-12.49-.45-8.72,0-25.7,4.61-34.06.05-.09.07-.17.09-.24.14-.49.43-.52,1.08-.4l.29.05-.05.29c-.18,1-.07,2.52.04,3.99.13,1.73.25,3.36-.05,4.39-.04.16-.18.29-.46.56-.33.32-.79.76-.93,1.18-.34,1.04-.27,1.43-.16,1.58.15.21.63.19,1.13.18.63-.02,1.34-.04,1.97.29.47.24,5.82,5.5,6.03,5.92.24.48-.08,1.22-.44,2.08-.22.51-.44,1.04-.49,1.42-.65,4.95,3.49,9.06,5.31,10.6l.42.36-5.9,1.57-5.1-6.96-.54.34.41,1.47-.16.12c-.24.17-.46.31-.65.42-.66.39-.83.5-.45,1.42l.22.55-1.82-.51c-.12.06-.23.17-.23.45.01.57.49,1.23.66,1.28.18.04.37-.16.65-.46.36-.39.81-.89,1.49-.7l.26.07-.05.27c-.16.79-.61,1.24-.93,1.58-.46.47-.65.66.17,1.55l.75-.26-.28-1.54.55.32c.71.41,1.23.21,1.79-.01.68-.27,1.45-.58,2.19.76l.09.17-.12.15c-1.96,2.48-2.64,5.32-1.72,7.26.74,1.56,2.45,2.4,4.94,2.43.6,0,1.07-.29,1.48-.55.45-.29.92-.59,1.45-.32l.08.06.98,1.01-.26.25c-1.15,1.11-1.77,1.8-1.02,3.04.28.37,3.75,2.38,4.23,2.43.56.04,1.11-.17,1.54-.58.45-.44.7-1.04.68-1.66-.01-.36-.17-.62-.33-.87-.13-.21-.25-.4-.29-.63-.05-.32-.03-.66-.01-.98.05-1.01.09-1.88-1.5-2.31-.41-.11-.76.04-1.14.2-.46.2-.98.42-1.52.01l-.06-.07c-.1-.15-.23-.32-.37-.5-.61-.8-1.43-1.89-1.29-2.85.06-.4.28-.74.65-1,.9-.64,1.64-.89,2.29-.77.88.16,1.42.97,1.98,1.82.46.7.94,1.41,1.64,1.87.83.54,1.81.74,2.84.96,1.73.36,3.51.74,4.56,2.72l.03.08c.22,1.12-2.06,3.06-2.41,3.32-1.03.75-9.2,4.84-10.48,4.93-.55.04-1.07-.09-1.57-.21-.5-.12-.98-.23-1.46-.19-.14.86.34,1.64.81,2.4.31.49.59.96.7,1.44.11.47.12.92.13,1.35.02.54.03,1.11.24,1.75.37,1.14,1.24,1.83,2.16,2.55.44.35.89.71,1.29,1.12l.16.16-.12.19c-1.49,2.35-3.96,4.67-6.3,5.9-.56.29-1.28.56-2.04.84-1.93.71-4.13,1.51-4.61,3.11-.42,1.38.84,3.26,2.28,4.52,1.66,1.45,3.44,2.06,4.54,1.55.99-.45,2.3-2.69,3.45-4.67.7-1.19,1.35-2.32,1.91-3.01.98-1.21,3.91-4.1,5.18-4.72.49-.24,1.05-.38,1.59-.52,1.4-.35,2.52-.63,2.48-2.36l-1.83-.81.45-1.55,3.05.12.07.18c.31.81.46,1.66.61,2.48.17.92.34,1.87.74,2.76.26.58.79,1.27,1.3,1.93.75.97,1.46,1.88,1.57,2.71.08.56-.16,1.07-.39,1.56-.22.48-.43.93-.36,1.4l5.31.59.07.05c1.07.86,1.68,2.56,1.68,4.67,0,2.3-.74,4.39-1.88,5.31-.74.6-1.87.67-3.07.75-1.35.09-2.75.19-3.41,1.08Zm-15.71-5.16c-.71-.04-1.26-.08-1.54-.11l-.46-.05.25-.39c1.35-2.12,2.68-1.6,3.75-1.17.42.17.81.32,1.16.29.03-.04.06-.08.11-.14.35-.46,1.07-1.41,2.02-1.45.36-.01.63.07.81.25.27.28.25.68.23,1.03-.01.22-.03.48.06.54.67.43,1.91.05,2.6-.56l.32-.28,1.05,2.77,3.25.6-.34,1.74h-.25c-1.13-.07-1.29.41-1.52,1.08-.23.68-.53,1.52-1.95,1.59-.06,0-.11,0-.17,0-1.31,0-2.08-.78-2.77-1.46-.52-.52-.97-.97-1.55-.97h0c-.6,0-1.35.47-2.29,1.43l-.14.14-1.15-.49-.04-.11c-.32-.82-.72-1.34-1.19-1.54-.6-.25-1.29.03-1.91.29-.44.18-.82.34-1.18.32-.03,0-2.88-1.08-2.87-1.59v-.21s.21-.06.21-.06c3.26-.89,6.61-.5,9.84-.12.82.1,1.66.2,2.49.27l.27-.67c-.46-.56-5.46-.85-7.12-.95Zm-14.58-1.03l.05.04c.42.38.23.74.17.84-.21.31-.74.48-1.3.48-.35,0-.71-.07-1-.21-.67-.33-.92-.97-.67-1.76l.09-.28,2.67.9Zm-2.02-1.49l.29-1.66,2.65-.45v2.64l-2.94-.53Zm-91.62,1.76c.35-.49,1.17-.57,1.84-.62.23-.02.45-.04.59-.07l.33-.08.02.34c.03.45-.08.81-.34,1.07-.36.36-.92.44-1.47.44-.24,0-.48-.02-.7-.03l-.34-.02-.05-.2c-.08-.32-.04-.6.11-.82Zm-1.3-2.57c-.07-.47.14-.89.57-1.16.53-.33,1.4-.1,2,.31.55.37.82.85.74,1.31v.07s-.06.06-.06.06c-.42.53-.95.82-1.51.82-.14,0-.29-.02-.44-.06-.66-.17-1.21-.74-1.3-1.34Zm-20.21.64l-.03-.23.22-.08c.94-.34,1.78.37,2.45.94.34.29.73.6.94.61.23,0,.54-.16.86-.32.56-.28,1.27-.63,2-.38.58.2,1.07.73,1.5,1.63l.16.34-.37.07c-.4.08-1.23.13-2.28.19-1.62.1-5.91.36-6.05.95,0,.12.03.25.11.35.12.15.34.25.59.27.69.07,1.97-.17,3.22-.39,1.08-.2,2.2-.4,2.96-.41,1-.02,1.93.1,2.83.21.79.1,1.6.19,2.44.2h.51s-.27.44-.27.44c-1.11,1.83-2.56,1.46-3.83,1.13-.69-.17-1.34-.34-1.89-.17-.38.12-.64.54-.91.99-.28.47-.58.95-1.06,1.19l-.18.09-.15-.13c-2.36-2.09-2.9-1.54-3.8-.63-.43.43-.91.92-1.64,1.24-.47.2-.88.29-1.23.29-1.08,0-1.7-.8-2.3-1.58-.54-.7-1.09-1.41-2.01-1.71l-.87-.28,4.14-1.29,1.15-2.86.31.24c.81.64,1.61.9,2.05.65.35-.2.5-.75.4-1.57Zm1.05-35.79l2.51-.73.43,1.45c.44-.17.89-.15,1.26.07.52.31.81.95.77,1.72l-.02.1c-.5,1.15-1.75.71-2.33.48-.01.28-.06.64-.23.91-.33.51-.78.79-1.24.79-.08,0-.16,0-.23-.02-.54-.11-.97-.58-1.08-1.17-.13-.71.2-1.42.91-1.95l-.73-1.64Zm13.82-13.64l.99.99-.99.99-.99-.99.99-.99Zm0-.09l1.03-1.35h1.01s0,1.35,0,1.35h-2.04Zm105.68.96l1.07-1.08.34,2.06h-1.41s0-.99,0-.99Zm-1.17-.96v-1.36h1.36v1.36h-1.36Zm15.08,15.81c.41.29,1.11.78,1.03,1.44-.06.51-.56.94-1.52,1.32l-.22.08-.13-.19c-.81-1.21-1.09-1.28-2.15-1.52-.24-.05-.5-.12-.82-.2l-.19-.05-.26-1.86.32-.02c.48-.03,1.08-.48,1.67-.92.83-.63,1.69-1.28,2.4-.77.88.63.32,1.66-.02,2.27-.06.12-.15.26-.19.37.03.02.06.04.09.06Zm9.21,14.55l.1.47-.46-.13c-1.67-.48-3.47,0-4.18,1.11-.53.83-.32,1.85.59,2.89l.17.19-.17.19c-.49.56-1.12.66-1.73.75-.41.06-.83.13-1.22.33-1.6.83-5.16,4.71-6.29,6.34-.14.2-.38.66-.67,1.19-1.32,2.47-2.72,4.91-3.98,5.11-.06,0-.12.01-.17.01-.27,0-.52-.1-.74-.31l-.07-.07v-.1c-.19-1.16.58-1.83,1.26-2.43.19-.17.38-.33.54-.5l-.55-.51-2.69,2.6-.19-.12c-.69-.44-1.01-.85-1.02-1.3,0-.63.63-1.06,1.25-1.48.53-.36,1.08-.73,1.01-1.09-.03-.14-.09-.31-.2-.35-.44-.14-1.54.86-1.91,1.2-.24.22-.32.29-.4.33-.5.22-.75.05-.85-.07-.21-.24-.18-.67.1-1.12.83-1.37,2.56-1.93,4.08-2.42.71-.23,1.39-.45,1.94-.73,1.62-.82,6.68-5.31,6.91-6.75.15-.98-.48-1.48-1.53-2.21-1.01-.7-2.15-1.5-2.29-3.12-.06-.73.08-1.24.19-1.65.2-.75.3-1.09-1.23-2.18l-.74-.53h.91c.15,0,.3,0,.45,0,.54,0,1.04.02,1.53-.09,2.21-.51,10.38-4.75,12.02-6.43.11-.11.25-.39.36-.61.21-.43.39-.77.71-.63l.09.05c2.85,2.61,1.61,5.46.41,8.21-.84,1.93-1.72,3.93-1.29,5.94Zm6.68,31.47c-.07.03-.14.04-.22.04-.21,0-.45-.1-.66-.28-.39-.33-.74-.98-.55-1.82l.02-.1,1.47-1.15c-.12-.19-.31-.3-.58-.33-.65-.07-1.48.36-1.73.76-.18.29-.15.74-.13,1.14.03.48.06.94-.26,1.2-.2.17-.49.22-.89.13l-.16-.03-.05-.15c-.56-1.57-.62-2.6-.18-3.24.53-.78,1.66-.81,2.86-.85.77-.02,1.57-.05,2.29-.26.5-.15,1.48-1.34,1.91-2.07,1.68-2.81,1.73-6.75.12-8.96-1.11-1.53-2.88-2.06-5.11-1.55l-.59.13.26-.54c1.02-2.14-.06-3.5-1.3-5.07-.68-.85-1.38-1.74-1.72-2.79-.65-1.98-.73-6.25-.47-8.16.19-1.36.78-2.57,1.36-3.74.93-1.88,1.8-3.66,1.04-5.98-.49-1.47-3.59-5.31-4.84-6.18-.82-.57-1.88-.86-2.91-1.13-2.09-.56-4.26-1.14-4.8-4.1l-.04-.25,10.67-3.62,2.38.75c.5-.82.08-1.89-.23-2.68-.18-.46-.31-.79-.26-1.05.09-.46.67-1.03,1.78-2.08,1.56-1.48,3.7-3.5,3.97-5.38.15-1.04-.13-2.22-.57-2.44-.21-.1-.48.06-.7.26.94,2.25-.69,4.18-2.01,5.74-.16.19-.32.38-.47.57-.37.45-.83.86-1.28,1.26-1.25,1.12-2.33,2.08-1.41,3.66l.26.45h-.52c-.58-.02-1.05.03-1.48.16l-1.19.35c-3.62,1.06-11.17,3.28-13.25,4.55-1.76,1.07-1.8,2.57-1.67,4.73l.02.31h-1.75s-.01-.28-.01-.28c-.01-.25,0-.5.02-.75.03-.56.06-1.06-.19-1.45l-.91,2.54-.27-.08c-.65-.2-.63-.91-.61-1.48.02-.67,0-1.08-.39-1.25-.11-.04-.44-.06-.57-.01l-.71,2.49-.25-1.13c-1.15-5.29,1.94-6.18,5.21-7.11,1.07-.31,2.17-.62,3.19-1.1,1.29-.6,8.66-5.01,9.06-5.49.16-.29.3-.91.43-1.51.22-1,.44-2.04.97-2.46.34-.28,1.39-.71,2.6-1.21,1.03-.43,2.1-.87,2.64-1.18.8-.46,1.64-.95,2.41-1.46.32-.21.72-.57,1.13-.96.99-.91,2.1-1.93,3.18-1.86.45.03.85.26,1.18.66,1.43,1.76.79,4.45.23,6.83-.27,1.12-.52,2.18-.53,3.03-.07,4.67,4.57,16.74,8.04,19.53,2.64,2.12,5.43,1.53,6.83-.15,1.44-1.74,1.5-4.68-1.6-7.33-1.03-.88-2.11-1.62-3.16-2.33-3.51-2.38-6.55-4.44-5.58-10.49.16-.98.71-2.19,1.25-3.36.48-1.03.93-2,.98-2.58.05-.54-.08-1.24-.22-1.98-.2-1.06-.43-2.27-.15-3.28l.07-.26,1.84.37c-.07-3.06,1.57-5.87,4.08-6.91l.75-.31-.38.72c-.8,1.5-.63,2.95-.45,4.49.1.88.21,1.78.14,2.74l2.39-.72-.55.72c-.28.37-.58.91-.9,1.48-.75,1.37-1.61,2.93-2.82,3.23-.42.1-.92.01-1.36-.07-.24-.04-.62-.11-.74-.08-.34.49-2.1,4.81-2.23,5.47-1.11,5.71,2.26,7.84,5.82,10.1,2.84,1.8,5.77,3.66,6.01,7.45.14,2.14-.5,3.8-1.88,4.96-2.11,1.76-5.44,1.83-7.99,1.29l1.17,8.16-1.25.44c0,.25.02.5.03.76.09,2.27.19,4.83-2.6,5.3-.31.95-.97,2.13-1.68,3.37-1.31,2.33-2.8,4.96-2.02,6.32.39.67,1.36,1.02,2.9,1.04h.4s-.13.39-.13.39c-.43,1.26-.55,2.59-.65,3.87-.09,1.1-.19,2.24-.49,3.32-.21.75-.62,1.5-1.03,2.23-.27.49-.55,1-.75,1.48-.18.43-.3.92-.43,1.43-.37,1.46-.79,3.11-2.63,3.97-.8.37-1.27.23-1.52.04-.3-.23-.44-.63-.36-1.1.09-.58.54-1.29,1.33-1.68l-.3-.49c-1.7.53-2.46,1.04-2.1,2.91v.04s0,.04,0,.04c-.02.22-.14.39-.33.47Zm5.37,7.21c1.16.38,1.99,1.52,2.79,2.62.59.8,1.14,1.56,1.72,1.87.37.19.37.18.64-.13.04-.05.08-.1.13-.15.06-.67-1.56-2.15-2.64-3.14-.71-.65-1.33-1.21-1.6-1.61l-.11-.16.1-.16c.12-.19.36-.31.75-.36.35-.05,1.33-.07,1.58.17.14.13.16.34.19.59.02.18.05.42.12.52.46.68,1.48.68,2.38.68.83,0,1.55,0,1.9.48.54.81.13,1.5-.2,2.06-.21.35-.41.69-.38,1.01.08,1.1,2.29,1.69,3.61,2.05.34.09.65.17.88.25l.31.1-.13.29c-.24.54-.88.68-1.49.8-.84.17-1.23.31-1.23.82,0,.3.62.93,1.17,1.48,1.1,1.12,2.47,2.52,1.95,3.88l-.06.15-.16.03c-1.62.29-2.4-.76-3.09-1.7-.6-.81-1.13-1.52-2.13-1.44l-.23,3.27-.47-.63c-1.41-1.9-2.03-4.25-2.63-6.52-.23-.88-.47-1.79-.76-2.65l-.82-.21-.54.53c-.02.31-.23.39-.3.4-.35.08-.76-.36-.84-.56-.24-.67-.32-1.44-.4-2.2-.08-.72-.16-1.46-.37-2.08l-.19-.55.55.18Zm24.89-6.47l-.03.12-2.96,1.86,1.3,1.95h-3.75s0,1.72,0,1.72l-4.38-2-1.91,1.86-4.67-1.96,9.86-2.23.81-.62c-.06-.09-.23-.23-.31-.26-.82-.22-2.6.25-4.48.74-2.5.65-5.34,1.39-6.97.78l-.52-.19,3.99-2.77.88.89c.4.02.96-.22,1.48-.63.58-.46.96-1.03.99-1.47v-.14s.12-.08.12-.08c.09-.06.2-.09.3-.07.22.04.36.25.56.53.38.56.74,1.01,1.34.94.5-.06,1.1-.49,1.67-.9.76-.54,1.47-1.05,2.08-.78.39.17.63.63.75,1.42.18.01.59,0,.91-.02,1.08-.04,2.3-.09,2.78.5.12.15.25.42.16.82Z"/>
          <polygon class="cls-2" points="135.87 162.69 135.87 162.7 135.87 162.69 135.87 162.69 135.87 162.69"/>
          <polygon class="cls-2" points="63.15 157.64 63.15 157.64 63.15 157.64 63.15 157.64 63.15 157.64"/>
          <path class="cls-2" d="m139.19,38.04c-.26,1.27-.5,2.47-1.17,3.01-2.2,1.76-3.85,1.07-5.61.34-.58-.24-1.18-.49-1.83-.67-.03.14,0,.43.03.53.34.58,6.06,3.82,7.35,4.4,3.73,1.69,8.72,3.46,14.15,2.13.55-.13,1.49-.54,2.48-.96,2.62-1.12,4.54-1.89,5.42-1.45.46.23.91.85,1.47,1.64,1.2,1.68,2.7,3.77,4.89,2.84l.43-.18-.03.47c-.1,1.51.18,2.56.84,3.11.69.58,1.87.66,3.49.26l.24-.06.15.37c.91,2.19,2.16,5.18,4.75,5.59,1.56.25,1.84-.38,2.2-1.18.18-.39.36-.8.71-1.1.27-.23.57-.35.84-.45.59-.23,1.01-.4.96-1.63-.03-.86-.53-1.46-.93-1.94-.26-.31-.46-.55-.52-.83-.08-.39.1-.78.27-1.16.19-.42.39-.85.27-1.31-.3-1.14-1.16-1.27-1.93-1.3-.26-.01-.41-.02-.53-.14-.14-.14-.13-.34-.12-.61.02-.5.05-1.26-.65-1.91-1.02-.95-2.24-.79-3.05-.68-.4.05-.64.08-.83-.02-.23-.13-.37-.39-.54-.68-.26-.46-.58-1.03-1.31-1.26-.85-.27-1.69-.15-2.43-.04-.55.08-1.06.16-1.51.06-.41-.09-.69-.3-.96-.5-.45-.34-.88-.66-2.08-.39-.42.1-.88.43-1.37.78-.88.63-1.87,1.33-2.97.88l-.45-.18.37-.31c.71-.59,1.25-1.22,1.76-1.83,1.08-1.27,2.1-2.48,4.42-2.71.06,0,6.35-.34,7,.6.19.27.24.64.3,1.07.1.71.22,1.51.96,2.02.78.54,2.95,1.09,4.44.71.54-.14.9-.38,1.07-.73.39-.78.27-1.95-.31-3.06-.56-1.07-1.41-1.81-2.22-1.93-1.37-.2-2.08.1-2.77.39-.45.19-.87.36-1.42.38-.36.01-.73-.1-1.08-.21-.32-.1-.62-.19-.9-.2-.87,0-1.75,0-2.63,0-.87,0-1.75,0-2.62,0h-.45s.19-.41.19-.41c.62-1.35,4.23-3.35,5.51-3.27.67.04,1.3.49,1.98.96.65.45,1.32.92,1.98.98.31.03.61-.05.92-.14.3-.08.61-.16.93-.14.28.02.53.17.77.32.25.15.48.3.73.28.24-.02.54-.26.82-.5.38-.31.77-.63,1.2-.56.31.06.62.39.97.77.25.28.54.6.78.72,1.69.9,2.46.21,3.22-.46.4-.36.78-.69,1.26-.69h0c.41,0,.9.35,1.53.79.59.41,1.25.88,1.81,1,.87.2,1.48.2,2.02.2,1.05,0,1.88.01,3.57,1.38,2.57,2.08,2.38,2.8,1.82,3.91-.23.45-.49.96-.49,1.77,0,1.17,1.25,2.63,2.17,3.24,1.03.68,1.95.84,2.66.46.79-.42,1.29-1.48,1.31-2.76.01-1.22-.46-2.79-1.82-3.55-.32-.18-.65-.27-1-.36-.49-.13-.99-.26-1.54-.66-.5-.36-.92-.93-1.36-1.53-.64-.87-1.3-1.77-2.26-2.14l-.17-.06-.02-.18c-.08-.82.24-1.19.52-1.36.85-.51,2.33.19,3.07.69.84.56,1.48,1.42,2.09,2.25.77,1.04,1.49,2.02,2.44,2.07.82.04,1.82-.59,3.06-1.94l.43-.47.07.64c.11.97.52,1.59,1.12,1.7.7.13,1.54-.45,2.03-1.42l.08-.16h.7s.09.13.09.13c1.04,1.38,2.54,2.1,3.64,1.75.92-.29,1.44-1.27,1.48-2.75v-.12s.1-.08.1-.08c.17-.16.4-.11,1.01.03,1.09.24,3.11.7,4.25-.39.74-.71.65-1.27.55-1.93-.06-.38-.12-.77,0-1.18.13-.43.43-.69.72-.95.39-.33.75-.65.8-1.42.04-.62-.07-1.04-.35-1.29-.49-.44-1.52-.32-2.45-.15l-.36.07.02-.37c.06-1.07-.17-2.41-1.61-2.74-1.77-.4-2.18.33-2.8,1.43-.36.64-.78,1.37-1.54,1.94l-.31.23-.83-2.24c-1.71-.89-2.78.32-4.01,1.71-.46.52-.93,1.05-1.44,1.45l-.26.2-.17-.28c-.64-1.03-1.22-1.59-1.68-1.6-.49-.01-.92.6-1.3,1.14-.27.39-.5.73-.79.89-.35.2-.8.11-1.23.01-.42-.09-.85-.18-1.13,0-.23.15-.34.45-.46.79-.27.73-.63,1.72-2.45,1.61-.36-.02-2.53-.42-2.84-1.13l-.09-.22.19-.14c1.36-.97,1.3-2.19.84-2.93-.6-.97-2.05-1.51-3.64-.65l-.39.21-.04-.44c-.11-1.28-.45-2.1-1.02-2.45-.74-.45-1.75-.04-2.36.21-.39.16-.59.24-.77.1-.16-.13-.24-.32-.31-.5-.16-.41-.34-.88-1.6-.85-1.2.02-1.84.66-2.35,1.17-.3.3-.53.53-.83.59-.36.07-.7-.1-1.05-.28-.72-.36-1.53-.77-3,.33-.21.16-.37.41-.53.66-.22.34-.46.7-.83.83-.51.17-1.14.13-1.75.09-.46-.03-.93-.06-1.32,0-1.55.25-2.16,1.06-2.86,1.99-.42.56-.86,1.14-1.53,1.61-.57.4-1.2.7-1.87,1.02-.86.42-1.75.84-2.56,1.51-.6.5-1.11,1.11-1.6,1.69-.52.62-1.05,1.26-1.72,1.8l-.6.49.13-.76c.69-3.94,2.27-5.36,5.33-6.89.53-.26,1.12-.46,1.69-.65,1.09-.37,2.12-.71,2.28-1.35.13-.49-.24-1.2-1.08-2.14l-.41-.45.61-.04c1.83-.11,3.8-1.3,5.71-2.45,1.92-1.16,3.74-2.26,5.51-2.41.87-.07,1.5.33,2.1.71.35.23.69.44,1.07.56,1.87.57,3.27.49,5.35-.28l.3-.11.08.31c.32,1.24.83,2,1.5,2.25.83.31,1.99-.08,3.65-1.22l.2-.14.43.42c1.63,1.6,4.09,4.01,6.32,3.36,1.22-.36,1.23-.94,1.26-1.82,0-.33.02-.67.1-1.02.04-.2.22-.33.42-.47.46-.33,1.1-.78.46-2.25-.32-.74-1.02-1.06-1.63-1.33-.44-.2-.81-.37-.99-.67-.22-.38-.23-.85-.24-1.3-.01-.56-.02-1.08-.42-1.38-.85-.68-2.14-.18-2.65.07l-.46.22.04-.51c.04-.52-.1-.91-.43-1.19-.66-.56-1.92-.59-2.83-.37-.32.08-.67.35-.95.56-.29.22-.51.4-.74.41-.29.01-.55-.16-.84-.36-.48-.32-1.13-.76-2.21-.67-.89.08-1.41.5-1.87.87-.3.24-.59.48-.93.57-.52.15-1.07.12-1.59.09-.49-.03-.96-.06-1.36.06-.3.09-.76.73-1.19,1.35-.97,1.37-2.3,3.25-4.26,2.86l-.43-.08.24-.36c.57-.87.25-1.52-.06-2.15-.16-.32-.3-.62-.3-.92,0-.38.14-.72.27-1.05.28-.69.49-1.23-.44-2.13-.58-.56-1.2-.77-1.85-.63-1.36.3-2.73,2.1-3.33,3.65l-.18.46-.32-.37c-1.01-1.19-1.86-1.7-2.52-1.5-.94.28-1.66,2-2.02,4.85l-.06.44-.38-.22c-1.4-.82-2.45-1.04-3.11-.65-1.11.65-1.07,2.92-1.05,4.28.01.91.01,1.2-.17,1.37-.14.13-.35.13-.67.12-.67-.01-1.05.04-1.12.34.42,7.29.83,14.82-7.41,18.28-2.38,1-5.34,1.46-7.56,1.18-.63-.08-1-.28-1.08-.59-.06-.24.06-.48.36-.71l.12-.09.14.05c1.32.42,2.69-.46,3.9-1.25.67-.43,1.24-.8,1.76-.93.56-.14,1.12-.03,1.72.08.97.18,1.98.37,3.04-.56.56-.49,1.68-2.73,1.64-3.44-.09-1.48-1.56-1.82-2.19-1.89-1.74-.21-4,.61-4.45,2.1-.22.74-.24,1.27-.26,1.7-.04,1.12-.14,1.61-2.42,2.58-1.72.74-6.36,1.5-8.01,1.32-.51-.06-4.1-1.44-4.49-2.49-.09-.24-.04-.46.12-.64l.09-.09h.13c.51.01.97-.18,1.45-.37.44-.18.89-.36,1.42-.42.9-.09,1.99.05,3.04.2,1.78.24,3.62.49,4.51-.4.56-.55.74-1.52.55-2.96l-.04-.34h.34c1.55.07,4.17-.26,5.04-1.39.38-.49.42-.93.47-1.36.03-.33.07-.66.26-.98.18-.31.59-.5,1.06-.71.4-.18.86-.39,1.13-.69,1.18-1.3.63-2.09.11-2.85-.27-.4-.53-.77-.51-1.19.02-.4.24-.81.47-1.25.49-.95.96-1.84-.2-2.68-1.21-.88-2.34-.07-3.44.71-.53.38-1.03.73-1.51.85-.37.1-.72.03-1.03-.03-.32-.06-.59-.11-.87-.01-1.13.4-1.9,1.93-2.58,3.28-.3.6-.58,1.16-.88,1.6l-.13.19-.21-.08c-.87-.32-1.53-.35-1.96-.09-.64.39-.77,1.43-.88,2.26-.08.63-.14,1.13-.41,1.38-.15.14-.4.15-.74.16-.28.01-.63.02-.83.12-.54.28-.79,1.52-1.01,2.62Zm23.09,7.53c2.25.41,4.59,1.31,6.96,2.69.64.37,1.59,1.14,2.6,1.95,1.23.99,2.91,2.34,3.41,2.37.3.02.37-.05.37-.05.06-.17-.45-.99-1.75-2.17-2.77-2.52-5.66-3.67-9.01-5.01l-.73-.29s-.11-.03-.19-.04c-.38-.07-.91-.17-1.03-.57-.07-.23.02-.48.27-.73,1.05-1.07,2.35-.3,3.21.2.3.18.61.36.77.38.59.07,1.15-.03,1.7-.13,1.39-.25,2.7-.49,3.31,2.4.41-.03.81-.15,1.19-.26,1-.29,2.03-.6,3.09.73l.17.21-.2.18c-.38.35-.78.85-.6,1.26.25.55,1.5.9,2.72.77l.46-.05-.16.44c-.64,1.75-.2,2.57.35,3.62.3.56.63,1.2.83,2.05l.12.5-.49-.16c-1.07-.35-1.32.2-1.68,1.2-.24.66-.53,1.48-1.37,1.48-.04,0-.08,0-.13,0-2.17-.2-3.53-3.87-4.25-5.85l-.05-.14-3.98.05-.58-3.5c-.53-.58-1.06-.49-1.77-.37-.32.05-.64.11-1,.11h-.13s-3.3-3.43-3.3-3.43l.89.16Zm14.53-6.2l.15-.02c.95-.16,1.65.64,1.85,1.52.2.86-.1,1.57-.76,1.76-.2.06-.37.09-.53.09-.41,0-.67-.18-.83-.37-.57-.67-.34-2.08.04-2.84l.07-.13Zm-2.62-.36l2.32-.64-2.63,3.94.31-3.3Zm27.05,5.72c.25-.02.39.07.47.15l.08.08v2.7l-.25.04c-.18.03-.35.04-.52.04-.87,0-1.53-.36-2.08-1.13l-.11-.15.1-.16c.25-.42,1.62-1.49,2.32-1.56Zm-.89-1.96l.17.14c.24.21.3.49.14.77-.34.6-2,1.3-2.61,1.3-.06,0-.1,0-.14-.02l-.57-.19,3.01-2Zm9.44-6.2c1.15-.17,6.19-1.25,6.61-1.53.2-.16.3-.4.24-.61-.06-.2-.26-.33-.58-.36-.39-.04-1.91.4-3.13.75-1.1.32-2.13.61-2.75.71-1.17.19-7.86,1.03-9.23.28l-.15-.08.02-2.01.41.2c1.39.69,1.97.04,2.83-.94.29-.32.58-.66.93-.96l.39-.34.31,1.87c1.49.75,2.23-.08,3.3-1.46.75-.98,1.61-2.08,2.97-2.08h.41s-.69,2.21-.69,2.21c.12.19.3.32.55.38.83.21,2.09-.35,2.68-.79.32-.24.63-.75.93-1.24.56-.93,1.2-2,2.25-1.71.33.09.56.27.68.52.25.55-.1,1.27-.41,1.9-.11.23-.27.56-.3.72.32.06.91-.02,1.44-.09,1.09-.15,2.23-.3,2.48.44.22.62-.38.96-.87,1.23-.45.25-.91.52-1.01.95-.05.23.04.54.15.87.17.55.36,1.16-.03,1.7l-.06.08-.09.03c-1.05.32-2.03.24-2.89.16-1.65-.14-2.64-.23-2.98,2.68l-.04.33-.32-.08c-1-.25-1.69-.76-2.29-1.21-1.14-.85-1.77-1.32-3.63.74l-.48.53-.02-.72c-.02-.72-.32-1.27-.8-1.5-.52-.25-1.22-.11-1.85.37-.23.18-.36.42-.48.65-.22.43-.5.97-1.48.77l-.09-.02-2.68-2.67,9.72-.67Zm-37.32-4.47c.77-1.36,2.18-1.34,3.43-1.32.76,0,1.47.02,2.07-.23.31-.13.57-.49.84-.88.39-.55.83-1.18,1.56-1.21.64-.04,1.38.41,2.29,1.41.22-.23.41-.46.6-.69.63-.75,1.22-1.45,2.41-1.86l.22-.08,1.21,1.91,3.34-1.17.07.31c.05.2.09.42.13.64.23,1.24.46,2.06,1.41,2.14.16.02.45-.05.73-.11.82-.18,2.05-.44,2.39.62.37,1.17-.67,1.56-1.3,1.79-.19.07-.49.18-.6.27l.79,1.97-.8,1.1-.09.03c-.51.17-.99.24-1.43.24-1.63,0-2.86-.94-3.81-1.67-.57-.43-1.06-.81-1.45-.85-.61-.07-.85.23-1.22.76-.36.51-.8,1.15-1.84,1.15h0c-1.14,0-1.44-.54-1.71-1.01-.12-.21-.23-.4-.41-.56-1.11-.97-1.57-.58-2.15-.1-.34.28-.69.57-1.18.56-.41-.01-.72-.28-.97-.5-.1-.09-.25-.22-.31-.23-.07,0-.28.12-.44.2-.62.34-1.78.97-2.78-.38-.19-.21-.16-.41-.12-.52.14-.38.74-.53,1.73-.64.09-.01.15-.02.19-.02,1.92-.38,5.89-.85,7.79-.86h0c.33,0,.9.09,1.61.19,1.43.22,3.83.58,4.4.09.02-.01.03-.03.04-.04l-1.2-.74c-4.57-.6-9.21-.03-13.7.52-.48.06-.96.12-1.44.18l-.57.07.28-.5Zm11.26-11.63c.52-1.36,1.63-1.35,2.6-1.34.41,0,.83,0,1.2-.09.3-.08.62-.34.95-.61.43-.36.93-.77,1.54-.86,1.63-.23,2.1.8,2.35,1.35.04.08.08.18.12.24,0,0,0,0,.01,0,.32,0,.78-.33,1.26-.67.89-.63,1.99-1.42,3.19-.89l.25.11-.1.26c-.28.75-.31,1.28-.11,1.5.36.39,1.57.04,2.3-.17.7-.2,1.05-.3,1.25-.08l.1.1-.02.14c-.31,1.89.51,2.44,1.65,3.19.43.28.92.61,1.37,1.03l.22.21-1.51,1.48.02,2.49-.27.02c-.09,0-.17,0-.26,0-2.07,0-3.76-1.73-5.01-3.01-.53-.54-1.07-1.09-1.37-1.2l-3.17,1.87-2.51-3.1c-.65-.16-1,.18-1.39.56-.3.29-.61.6-1.06.6-.01,0-.02,0-.03,0-.3,0-.58-.17-.87-.35-.46-.27-.94-.55-1.55-.28l-.25-.52,1.83-1h9.27l-.11-.76c-.32-.23-2.12-.6-11.24.14l-.81.06.17-.43Zm-21.5,8.56c2.12-.77,2.1-1.82,2.07-3.42-.01-.71-.03-1.51.15-2.38v-.05s.04-.05.04-.05c.56-.85,1.45-.42,2.16-.08.41.2.84.4,1.16.37,1.19-.11,1.5-2.22,1.72-3.76.06-.42.12-.79.18-1.08l.04-.18.19-.04c.24-.05.6-.09.86.12.29.23.29.61.3,1.01,0,.38.02.82.26,1.16.28.38.49.38.56.38.64-.01,1.48-1.31,2.22-2.45.95-1.47,1.78-2.73,2.7-2.54.49.1.8.32.92.65.27.76-.59,1.81-1.42,2.83-.39.48-1.04,1.27-1.03,1.52.18.24.35.37.47.38.16.01.36-.19.57-.4.35-.35.78-.78,1.44-.72l.27.03v.27c-.09,2.79-3.42,4.25-6.08,5.42-1.46.64-2.84,1.24-3.34,1.91-.33.44-.36.66-.34.74.03.13.21.24.42.37.36.22.91.55.78,1.31l-.03.17-4.61,1.68-.13-.14c-.54-.57.54-2.01,3.35-5.21.58-.66,1.18-1.35,1.25-1.5.02-.09-.06-.26-.19-.4-.11-.11-.24-.18-.35-.19l-6.39,7.83-.39-3.47.22-.08Zm-8.38,10.7c.08-.36.52-.66.75-.73.8-.23,1.86-.17,2.42.68l.07.11-.03.13c-.31,1.21-.77,1.85-1.35,1.91-.03,0-.06,0-.09,0-.55,0-1.11-.54-1.64-1.61-.13-.13-.18-.31-.14-.48Zm-1.2.82c.79.45,1.59,1.26,2.05,2.05l.28.49-2.36-.25-.53-2.61.56.32Zm-12.02-4.45l.36.18c.38.19.68.22.93.1.69-.33.99-1.74,1.22-2.77.05-.23.1-.45.15-.65l.1-.41,1.32.94c.52-.03,1.86-1.76,3.68-5.61l.03-.07.06-.04c.42-.29.94.05,1.4.35.16.1.4.26.48.27.09-.04.47-.39.78-.68.92-.85,2.18-2.02,3.28-1.9.42.04.77.27,1.04.66l.1.15-1.87,3.37c1.22.56,1.77,1.07,1.77,1.62,0,.76-1.05,1.22-2.06,1.66-.55.24-1.24.54-1.37.77-.1.17-.04.38.05.71.13.46.32,1.09-.34,1.64-.76.63-1.75.74-2.71.84-.87.1-1.68.19-2.31.63l-.55,2.99-.13.07c-.31.16-1.05.25-1.83.25-.86,0-1.76-.11-2.17-.38-.28-.18-.34-.4-.33-.56v-.14s.11-.08.11-.08c.53-.41,1.08-.81,1.67-1.24,1.69-1.23,3.43-2.5,4.7-3.96,1.11-1.28,1.81-2.48,1.65-2.87-.01-.03-.04-.11-.25-.14-.29.15-1.34,1.23-2.27,2.18-2.97,3.04-5.53,5.55-6.88,5.58h-.35s.51-3.44.51-3.44Z"/>
          <path class="cls-2" d="m5.07,33.74c.34.16.72.33.91.69.26.5.17.98.08,1.44-.13.67-.25,1.25.6,1.99,1.2,1.04,2.84.66,3.92.41.67-.15,1.07-.25,1.32-.03l.1.08v.13c.05,1.45.56,2.4,1.43,2.7,1.09.36,2.62-.34,3.71-1.71l.09-.11h.7s.08.16.08.16c.5,1.08,1.39,1.45,2.01,1.33.65-.12,1.07-.72,1.14-1.62l.05-.69.46.52c1.12,1.26,2.06,1.87,2.88,1.87,0,0,.01,0,.02,0,1.03-.01,1.84-.98,2.79-2.1,1.24-1.48,2.64-3.15,4.99-2.96l.22.02.32,1.62-.23.09c-.96.37-1.62,1.27-2.26,2.14-.44.6-.86,1.17-1.36,1.53-.42.3-.98.51-1.57.73-1.1.41-2.24.84-2.55,1.89-.81,2.78.18,4.29,1.28,4.74,1.17.48,2.95,0,4.1-2.15.77-1.44.32-2.39-.07-3.23-.22-.47-.43-.92-.34-1.36.18-.85,3.09-3.65,3.89-3.9.7-.22,1.4-.2,2.09-.19.55.01,1.06.02,1.57-.08.52-.1,1.29-.6,1.97-1.04.8-.52,1.31-.83,1.67-.83h0c.4,0,.83.29,1.33.62,1.25.84,2.81,1.88,4.69-.84l.18-.26.24.2c1.16.96,1.54.84,2.17.64.3-.1.65-.21,1.12-.23.32-.01.63.06.92.14.32.08.62.16.92.13.68-.07,1.35-.54,2-.99.67-.47,1.3-.91,1.97-.95,1.38-.09,4.68,1.99,5.49,3.24l.28.44h-.53c-.87.01-1.74,0-2.61,0-.88,0-1.76,0-2.63,0-1.7.01-2.13-.06-2.91-.2-.34-.06-.76-.13-1.4-.22-1.57-.2-2.97.35-3.85,1.53-.75,1.01-.98,2.31-.56,3.25.31.7.94,1.12,1.82,1.2,2.95.27,4.75-1.14,5.08-3.98v-.13s.12-.08.12-.08c.84-.61,5.92-.49,6.77-.4,2.44.25,3.61,1.68,4.85,3.19.42.51.85,1.05,1.36,1.56l.47.48-.67.02c-1.13.04-1.98-.52-2.8-1.05-.86-.56-1.68-1.08-2.77-.9-.35.06-.64.28-.92.5-.26.2-.5.39-.8.46-.44.1-.96.02-1.51-.06-.74-.11-1.58-.23-2.43.04-.72.23-1.05.8-1.3,1.26-.17.3-.31.55-.54.68-.18.1-.43.07-.85.02-.29-.03-.63-.07-1.01-.07-.76,0-1.61.17-2.2.91-.48.6-.48,1.35-.47,1.79,0,.28,0,.45-.12.57-.12.12-.27.13-.53.14-.78.03-1.64.16-1.93,1.3-.12.46.08.89.27,1.31.17.38.35.76.27,1.16-.06.32-.3.57-.58.86-.42.44-.91.94-.91,1.85,0,1.3.49,1.5,1.11,1.76.33.14.68.28.95.59.17.19.25.44.34.7.1.3.2.6.43.84.68.71,1.55.83,2.57.36,1.96-.9,3.92-3.82,3.76-5.59l-.04-.42.4.11c1.35.36,2.62.7,3.83,0,.89-.61.87-2.57.86-3.21v-.45s.4.17.4.17c2.19.92,3.69-1.16,4.89-2.84.57-.79,1.01-1.41,1.47-1.64.85-.43,2.72.31,5.27,1.4,1.05.45,2.04.87,2.62,1.01,5.51,1.28,10.25-.36,14.15-2.13,1.29-.59,7.01-3.82,7.36-4.41.04-.09.06-.38.03-.52-.65.18-1.25.43-1.83.67-1.75.73-3.41,1.42-5.61-.34-.72-.58-.92-1.68-1.13-2.85-.36-2.01-.7-3.21-2.36-3.02l-.25.03-.98-3.51c-.38-.35-.93-.24-1.46-.14-.42.08-.78.15-1.06-.02-.38-.23-.65-.84-1.04-1.68-.58-1.27-1.3-2.86-2.51-3.29-.28-.1-.55-.05-.87.01-.31.06-.66.12-1.03.03-.48-.12-.98-.48-1.51-.85-1.1-.78-2.23-1.58-3.44-.71-1.15.84-.69,1.73-.2,2.68.23.44.44.85.47,1.25.02.42-.23.79-.51,1.19-.53.76-1.07,1.55.11,2.85.26.29.72.5,1.13.69.47.21.87.4,1.06.71.19.32.22.65.26.98.04.43.09.87.47,1.36.88,1.14,3.5,1.46,5.04,1.41h.34s-.04.32-.04.32c-.15,1.39.04,2.34.58,2.89.88.9,2.69.73,4.6.55,2.18-.21,4.43-.42,5.98.78l.23.17-.17.23c-.89,1.21-3.77,3.8-11.21,1.66-.03,0-2.7-.79-3.3-1.64-.44-.62-.5-1.36-.56-2.07-.12-1.4-.23-2.62-3-2.99-2.1-.28-3.35.29-3.54,1.6-.24,1.71,1.4,4.09,2.97,4.32.57.08,1.18-.02,1.76-.12.57-.1,1.11-.19,1.56-.08.52.13,1.1.5,1.76.93,1.21.78,2.58,1.67,3.9,1.25l.14-.05.12.09c.3.23.43.47.36.71-.08.31-.44.5-1.08.59-4.1.53-11.8-1.95-13.54-6-.42-.97-1.7-5.56-1.78-6.51-.04-.54.07-1.41.19-2.42.23-1.82.57-4.56-.27-4.84-.15-.05-.45-.04-.68-.03-.35.01-.55.02-.69-.11-.19-.18-.18-.48-.13-1.42.06-1.12.16-2.82-.42-3.53-.37-.46-.99-.74-1.69-.77-.72-.03-1.41.22-1.84.67l-.09.1h-.13c-.49-.04-.62-.67-.85-1.73-.25-1.17-.6-2.76-1.49-3.27-.35-.2-.78-.22-1.29-.05l-1.26,1.54h-.14s0,0,0,0c-.31,0-.5-.32-.92-1.02-.61-1.01-1.53-2.54-2.78-2.8-.56-.12-1.14.04-1.76.48-1.23.88-.99,1.43-.66,2.2.15.35.31.71.31,1.12,0,.29-.14.59-.3.91-.31.64-.64,1.3-.06,2.17l.24.36-.43.08c-1.97.39-3.29-1.49-4.27-2.86-.44-.62-.89-1.26-1.19-1.35-.41-.12-.87-.09-1.36-.06-.53.03-1.07.06-1.59-.09-.35-.1-.63-.33-.93-.57-.46-.37-.97-.79-1.87-.87-1.24-.12-1.95.4-2.42.74-.24.17-.41.3-.61.3h0c-.24,0-.46-.19-.74-.43-.21-.18-.48-.41-.68-.47-.96-.29-2.33-.34-3.06.24-.36.29-.52.69-.48,1.24l.03.5-.45-.22c-.51-.25-1.79-.75-2.64-.08-.4.3-.41.83-.42,1.39,0,.45-.02.92-.24,1.3-.17.3-.57.48-1.04.69-.42.19-.89.41-1.15.7-1,1.11-.57,2.09-.03,3.32.32.73.65,1.49.7,2.34,2.81,1.76,5.43-.83,7.55-2.93l.35-.35.2.14c1.65,1.14,2.81,1.53,3.65,1.22.67-.25,1.18-1.01,1.5-2.25l.08-.32.31.12c1.97.78,3.44.83,5.64.19.25-.07.52-.27.81-.47.42-.3.9-.65,1.51-.72,1.58-.19,3.74,1.07,6.02,2.41,2.06,1.21,4.2,2.46,5.72,2.46h.67s-.44.49-.44.49c-.84.93-1.21,1.65-1.08,2.14.17.64,1.2.98,2.28,1.35.58.19,1.17.39,1.69.65,3.06,1.52,4.64,2.94,5.33,6.89l.1.6-.53-.29c-.79-.43-1.29-1.12-1.78-1.78-.32-.43-.61-.84-.99-1.19-.92-.84-1.93-1.37-2.91-1.88-.74-.38-1.44-.74-2.1-1.23-.58-.43-1.02-.98-1.45-1.51-.62-.76-1.2-1.48-2.11-1.82-.76-.28-1.5-.26-2.21-.23-.6.02-1.17.04-1.7-.13-.37-.13-.6-.48-.83-.83-.16-.25-.33-.5-.53-.66-1.47-1.11-2.28-.7-3-.34-.35.18-.69.35-1.05.28-.36-.07-.78-.38-1.27-.73-.79-.57-1.77-1.28-2.61-1.07-.5.12-.94.57-1.31,1.32l-.16.32-.28-.21c-.82-.62-1.52-.82-2.1-.59-.72.29-1.28,1.28-1.52,2.73l-.06.35-.33-.13c-1.54-.59-2.74-.52-3.37.19-.72.81-.63,2.4.24,4.06l.15.3-.31.11c-3.07,1.11-3.82.22-4.48-1.05-.2-.39-.39-.75-.71-.96-.28-.18-.71-.09-1.13,0-.43.09-.88.19-1.23-.01-.28-.16-.51-.5-.78-.89-.38-.54-.81-1.17-1.3-1.14-.46.01-1.04.57-1.68,1.6l-.17.28-.26-.2c-.51-.4-.99-.94-1.45-1.46-1.24-1.4-2.31-2.6-4.01-1.71l-.83,2.23-.31-.21c-.72-.5-1.14-1.19-1.5-1.8-.55-.92-.99-1.64-2.24-1.67-.7-.01-1.21.15-1.57.51-.46.45-.67,1.22-.65,2.33v.38s-.36-.09-.36-.09c-1.16-.29-2.05-.19-2.51.27-.42.42-.51,1.19-.25,2.21.02.08.28.2.46.28Zm23.61,12.87c-.55.77-1.21,1.13-2.08,1.13-.16,0-.34-.01-.52-.04l-.25-.04v-2.7s.08-.08.08-.08c.08-.08.22-.18.47-.15.7.07,2.07,1.14,2.32,1.56l.1.16-.11.15Zm1.6-1.83l-.57.19s-.08.02-.14.02c-.61,0-2.28-.69-2.61-1.3-.15-.28-.1-.56.14-.77l.17-.14,3.01,2Zm20.9-2.86c-.53.55-.97.71-1.3.71-.2,0-.35-.05-.47-.11-.5-.26-.76-.95-.62-1.65.13-.67.67-1.41,1.79-1.51l.27-.02.43,2.49-.1.11Zm2.21-.44c-.11.02-.2.03-.29.03-.84,0-1.05-.87-1.2-1.52-.07-.29-.14-.6-.25-.81l.5-.3,1.68,2.51-.43.09Zm12.28,5l-.03.22-.22.03c-.57.07-1.32.9-1.81,1.44-.37.41-.55.6-.72.65-.42.13-.85,0-1.22-.1-.25-.07-.48-.14-.67-.13-1.1.1-1.17.87-1.16,2.13,0,.75.02,1.46-.47,1.81l-.08.06-3.84-.05c-.19.43-.35.89-.52,1.33-.59,1.61-1.21,3.28-2.88,4.24-.41.23-.76.35-1.07.35-.13,0-.25-.02-.36-.06-.54-.19-.75-.77-.97-1.34-.36-.95-.63-1.51-1.69-1.21l-.48.14.11-.48c.2-.85.53-1.48.83-2.05.55-1.04.99-1.87.35-3.62l-.11-.3,3.13-.82c.11-.26-.02-.51-.22-.87-.18-.31-.37-.65-.25-1.02.09-.27.33-.49.74-.67.91-.41,1.68-.1,2.41.21.31.13.63.26.96.33.18-.1.28-.56.36-.94.09-.4.18-.82.39-1.09.79-1,2.07-.73,3.1-.52.45.09.87.18,1.17.15.28-.03.57-.23.89-.43.7-.46,1.65-1.09,3.04-.19l.11.07.02.13c.07.48.08.75-.08.93-.14.15-.32.14-.44.14-.08,0-.16,0-.24.02-.57.23-1.13.43-1.68.63-1.39.51-2.71.99-4.05,1.76-1.16.66-5.93,3.92-6.09,5.14,0,.03,0,.06,0,.08.03,0,.06,0,.1,0,.33.01.65.03.93-.07.23-.08,1.25-.93,2.16-1.69,1.25-1.04,2.67-2.22,3.5-2.69,2.12-1.2,3.95-1.95,5.59-2.3.1-.02.22-.07.34-.12.3-.12.65-.26.91-.06.25.19.23.57.19.83Zm21.79-7.8c-.01.43-.13.7-.35.82l-.12.07-.13-.05c-2.09-.8-3.79-2.64-5.44-4.43-1.09-1.19-2.13-2.3-3.17-2.99-.34-.22-.44-.21-.45-.21,0,0-.03.03-.06.15.96,2.81,3.6,4.71,6.15,6.55.66.48,1.29.93,1.89,1.4l.11.08v.14c0,.15-.05.37-.32.55-.42.28-1.28.38-2.11.38s-1.57-.1-1.89-.25l-.14-.06-.54-2.93-5.73-1.57.33-2.29c-2.91-1.3-3.32-1.99-3.32-2.49,0-.61.69-.93,1.25-1.19.23-.11.57-.26.62-.36-.01-.14-.4-.76-.69-1.21-.79-1.24-1.28-2.09-1.03-2.66.07-.15.23-.35.6-.41,1.03-.16,2.48,1.08,3.54,1.98.29.25.61.52.76.62.05-.04.13-.1.2-.15.38-.3,1.01-.8,1.66-.43l.07.04.04.07c.32.55.6,1.14.88,1.71.69,1.42,1.4,2.89,2.68,3.85l1.48-.85.09.37c.04.16.08.36.13.57.23,1.04.6,2.79,1.47,3,.1.02.4-.13.5-.17.18-.09.33-.16.49-.06.27.18.57,1.73.55,2.38Zm-15.22,3.19c-.05.01-.1.02-.15.02-.6,0-1.23-.72-1.42-1.43-.18-.69.09-1.24.7-1.43.78-.24,1.82-.2,2.4.64l.12.18-1.56,2-.1.02Zm2.96.76l-2.61.53.32-.56c.45-.79,1.26-1.59,2.05-2.05l.49-.28-.25,2.36Zm-31.6-21.75c-1.15-.02-2.44-.14-3.81-.27-2.55-.24-5.19-.48-7.22-.12-.64.12-.81.3-.76,1,1.37.08,2.84.02,4.26-.04,1.69-.07,3.43-.14,5.03.02.59.06,2.01.27,2.37.91.08.15.15.38,0,.67l-.15.3-.28-.19c-.79-.54-1.31-.23-1.87.1-.29.17-.57.34-.88.35-.46.01-.78-.3-1.09-.6-.39-.39-.74-.72-1.39-.56l-2.5,3.09-3.37-1.71c-.29.27-.57.55-.85.83-1.51,1.49-3.06,3.03-5.55,3.22l-.32.02.02-2.53-1.51-1.48.22-.21c.46-.42.94-.75,1.37-1.03,1.14-.75,1.96-1.3,1.65-3.19l-.02-.14.1-.1c.21-.22.56-.12,1.25.08.72.21,1.93.56,2.3.17.2-.22.17-.75-.11-1.5l-.1-.26.25-.11c1.2-.52,2.31.26,3.19.89.49.35.94.67,1.27.67.03-.05.08-.16.12-.24.25-.55.72-1.58,2.35-1.35.61.09,1.1.5,1.54.86.33.28.65.54.95.61.37.09.79.09,1.2.09.97,0,2.08-.02,2.6,1.34l.16.4h-.43Zm21.67,11.79l-6.46-7.91c-.11.01-.24.08-.35.19-.13.13-.2.29-.19.41.13.2.88,1.05,1.44,1.67.69.77,1.33,1.5,1.56,1.82.08.11.17.23.27.36.62.82,1.47,1.95,1.2,2.75l-.1.28-4.43-1.69-.05-.05c-.17-.17-.24-.36-.21-.54.04-.32.34-.51.65-.71.28-.18.6-.38.63-.63.03-.21-.14-.5-.47-.85-.68-.71-1.98-1.27-3.37-1.87-2.63-1.13-5.61-2.42-5.86-5.29l-.05-.6,2.16,1.43c.22-.05.45-.13.5-.28.15-.38-.56-1.27-1.13-1.99-.75-.94-1.45-1.83-1.21-2.5.12-.33.43-.54.94-.64,1.06-.21,2.15,1.6,3.11,3.2.38.63.74,1.23.95,1.42.29.26.71.46,1.02.35l1.06-2.8.31.22c.81.58.99,1.64,1.17,2.67.15.85.29,1.66.76,2.03.66.52,1.29.22,1.96-.1.6-.29,1.22-.58,1.79-.16l.06.04.03.06c.46.92.42,1.92.38,2.81-.06,1.47-.1,2.53,1.75,2.94l.23.05-.04,3.91Zm-32.41-1.62c.47-.39,1.17-.24,1.79-.11.33.07.66.14.9.12.96-.08,1.18-.9,1.41-2.14.04-.22.08-.44.13-.64l.08-.33.32.13c.48.2.89.42,1.25.6.72.37,1.24.64,1.64.5.38-.14.76-.69,1.19-1.72l.15-.37,3.25,2.82,2.23-1.46h.09c.92.03,1.33.77,1.64,1.31.13.24.26.47.39.57.57.47,1.45.45,2.38.44,1.26-.02,2.69-.04,3.42,1.32l.26.49-11.17-1.21c-.84.3-1.73.32-2.59.33-1.12.02-2.18.03-3,.69l.77.51c4.79-.87,9.52-.24,14.74.6l.38.06-.16.35c-.28.61-.65,1-1.1,1.16-.69.25-1.39-.1-1.89-.35-.16-.08-.39-.19-.46-.19-.06.01-.24.15-.37.25-.35.26-.82.62-1.37.51l-.09-.03-1.71-1.02-3.08,2.17h-.09c-.95.04-1.47-.62-1.87-1.15-.41-.54-.69-.86-1.21-.8-.39.04-.89.42-1.46.85-.95.73-2.17,1.66-3.8,1.66-.45,0-.92-.07-1.44-.24l-.09-.03-.8-1.1.75-1.87-1.86-1.14v-.15c-.03-.67.11-1.13.42-1.4Zm-27.25,1.3h0c.26-.74,1.39-.58,2.48-.44.53.07,1.12.15,1.44.09-.03-.17-.19-.49-.3-.72-.31-.64-.66-1.36-.41-1.9.12-.26.35-.43.68-.52,1.04-.28,1.68.78,2.25,1.71.3.49.6,1,.92,1.24,1.08.81,2.27,1.12,2.76.73.38-.3.35-1.08-.1-2.12l-.18-.41h.45c1.33.03,2.13,1.06,2.91,2.06.94,1.21,1.76,2.26,3.38,1.48l.31-1.86.39.34c.35.31.65.64.93.96.87.98,1.44,1.62,2.83.94l.42-.2v2.3s-.28,0-.28,0c-3.4.09-6.18-.05-8.75-.44-.47-.07-1.29-.29-2.24-.53-1.41-.37-4.03-1.05-4.42-.83q-.33.29-.12.58c.81,1.11,13.81,3.05,15.76,1.86l.21-.13.16.19c.34.4-.38,1.51-.53,1.73-.38.56-1.41,1.83-2.63,1.41-.25-.09-.52-.37-.88-.75-.54-.57-1.28-1.35-1.83-1.21-.41.1-.78.73-1.06,1.8l-.13.48-.36-.35c-2.03-1.99-2.27-1.78-3.28-.89-.31.27-.69.61-1.19.94-.43.29-.79.43-1.1.43-.12,0-.23-.02-.34-.06-.55-.22-.7-.92-.84-1.59-.1-.47-.22-1-.45-1.16-.7-.46-1.61-.26-2.5-.08-.87.19-1.69.36-2.33-.07-.73-.6-.49-1.35-.31-1.96.1-.33.2-.64.15-.88-.1-.43-.56-.69-1.01-.95-.48-.27-1.08-.61-.87-1.23Z"/>
          <path class="cls-2" d="m94.34,31.33c.25,1.28.31,2.36.37,3.32.17,2.83.25,4.12,4.64,5.23,7.14,1.8,24.87,2.07,31.13-.82l.22-.1c.55-.25,1.18-.53,1.48-1,.14-.83.28-1.65.41-2.47.87-5.28,1.69-10.27,4.57-15.17.24-.41.93-1.32,1.67-2.28.66-.87,1.55-2.04,1.7-2.34,0-.01-.02-.03-.04-.05-.14-.12-.54-.18-.89-.14-.9.11-6.07,1.44-6.67,1.76-.71.38-1.1,1.01-1.35,1.42-.15.25-.25.41-.4.5-.27.16-.63.17-1.01.18-.32.01-.64.02-.89.11-2.99,1.1-2.87,4.3-2.53,6.1l.07.4-6.23-.89.17-.36c.91-1.92,1.3-4.71-.6-6.27-.25-.2-.72-.39-1.15-.56-.61-.24-1-.4-1.16-.65-.27-.4-.27-1.04-.26-1.72,0-.53,0-1.08-.12-1.5-.17-.54-.74-1.12-1.35-1.73-.89-.88-1.88-1.88-1.99-3.14-.65-.1-.76.21-.96.77-.11.29-.23.63-.46.91-.29.35-.61.68-.95,1.03-.92.94-1.87,1.92-2.03,3.2-.04.28.05.64.12.98.11.48.21.9,0,1.2-.2.29-.66.43-1.19.6-.38.12-.81.26-1.05.43-1.64,1.19-2.02,4.59-.72,6.39l.29.39-6.83.91.21-.47c.82-1.87.58-4.4-1.46-5.64-.54-.33-1.06-.41-1.56-.48-.41-.06-.8-.12-1.13-.32-.32-.19-.49-.46-.67-.74-.3-.47-.64-1-1.79-1.39-1.06-.36-2.38-.58-3.66-.79-1.08-.18-2.19-.36-3.18-.63.28.71,1.65,2.46,2.28,3.27.45.58.81,1.03.96,1.28,1.86,3.03,3.14,6.6,4.04,11.26Zm-.13-5.02l-.26.04-.91-3.64.27-.08c.77-.22,1.51-.05,2.01.48.5.53.69,1.33.46,2-.22.65-.78,1.08-1.57,1.2Zm37.18,11.42l-.03.18-.18.05c-5.81,1.59-11.82,2.38-17.64,2.38s-11.92-.86-17.14-2.58l-.17-.06-.03-.18c-.05-.32.03-.93,1.07-1.38.55-.24,2.64.13,5.77.73,1.26.24,2.44.46,3.01.52,2.88.28,5.86.17,8.74.07.58-.02,1.15-.04,1.72-.06h.49c4.33-.15,8.42-.27,12.61-1.44l.08-.02.08.02c.45.13,1.82.53,1.62,1.77Zm-29.36-2.17c0-.09.02-.21.14-.33,1.24-1.21,17.33-.96,17.49-.95,1.44.07,3.15.37,4.66.63.34.06.67.12.99.17l1.61.27-5.73,1.08c-2.74.13-5.31.22-7.77.22-3.88,0-7.5-.22-11.15-.81l-.24-.04v-.24Zm29.74-.17l-.04.34-.33-.1c-10.97-3.34-24.46-3.34-35.21,0l-.37.11-.06-2.65.07-.08c1.02-1.27,8.92-2.22,9-2.22,2.35-.26,6.43-.63,7.36-.17.36.17.58.58.8.97.28.49.47.8.72.75.33-.08.71-.78.94-1.19.21-.37.3-.54.44-.62,1.19-.69,12.65.94,14.32,1.46l.3.09c1.96.61,2.36.82,2.06,3.31Zm-21.22-9.54l2.43-4.68.05-.04c.15-.12.34-.16.54-.11.78.16,1.67,1.6,2.67,3.33.25.44.49.85.6.98l.13.16-3.18,5.36-3.25-5Zm22.38.71l-.3-.34c-.78-.88-.99-2.06-.52-2.86.39-.67,1.18-.93,2.16-.72l.35.08-1.68,3.85Zm-8.01.19c1.72.38,3.36.73,4.65.59-.16-.48-.5-.82-.89-1.2-.5-.49-1.06-1.05-1.21-1.98-.5-3.06,1.64-3.44,3.05-3.69.48-.09.94-.17,1.21-.32.14-.08.3-.35.48-.63.35-.57.79-1.28,1.6-1.62.57-.24,1.25-.32,1.91-.41.52-.07,1.06-.14,1.52-.28l.67-.21-2.42,4.63-.2-.03c-1.63-.23-3.05.17-3.79,1.07-.67.81-.78,1.95-.32,3.31.17.51.6.79.98,1.03.34.22.65.42.75.76.14.49-.11,1.33-.37,2.22-.17.57-.35,1.16-.36,1.51v.39s-.39-.13-.39-.13c-4.4-1.52-9.12-1.87-13.68-2.21l-1.75-.13.09-.34c1.03-3.95,4.99-3.08,8.49-2.32Zm-17.75-6.19c.48-1.24,1.81-2.36,3.74-2.24-.55-3.27.09-4.85,2.7-6.89l.17-.13.18.13c2.72,1.98,2.88,4.04,2.69,6.91h0c1.67,0,3.04.77,3.62,2.06.6,1.33.22,2.87-1.03,4.12l-.07.05c-1.41.74-2.56-1.24-3.59-2.99-.59-1.01-1.33-2.27-1.8-2.27h0c-.59,0-1.42,1.4-2.1,2.53-.89,1.49-1.73,2.91-2.7,2.91-.09,0-.17-.01-.26-.03l-.09-.04c-1.48-1-2.06-2.61-1.48-4.11Zm-17.19-2.46c-.05-.38-.05-.66.15-.82.2-.16.44-.09.64-.02.11.04.22.07.34.09h0c1.97.25,3.27.76,3.85,1.51.2.26.34.68.46,1.05.04.13.1.3.14.38.16.05.58.05.9.04.56,0,1.19-.01,1.68.14,1.77.56,2.09,3.06,1.64,4.58-.2.67-.74,1-1.18,1.26-.53.32-.8.51-.72,1.01,1.29.14,2.93-.21,4.66-.59,3.54-.77,7.55-1.64,8.6,2.33l.09.33-.34.03c-.77.07-1.55.13-2.33.18-4.19.32-8.53.65-12.54,2.12l-.08.03-.08-.02c-.84-.18-1.27-3.24-1.24-3.6.04-.47.44-.82.91-1.23.84-.74,1.79-1.57,1.1-3.32-.78-1.98-2.17-2.05-4.36-2h-.17s-2.12-3.44-2.12-3.44v-.06Z"/>
          <path class="cls-2" d="m100.1,67.26l-.61-.4c-1.7,2.4-3.64,7.38.76,15.01l.12.21-.19.16c-.13.11-.51.43-5.12-2.38-.57-.35-1.57-1.12-2.54-1.87-1.06-.81-2.25-1.74-2.6-1.87-.18-.07-.41-.1-.51-.08.8,5.71,5.84,8.82,10.72,11.83,1.68,1.03,3.26,2.01,4.68,3.09,1,.76,1.92,1.63,2.8,2.46.49.46.99.94,1.5,1.39.83-1.24-.23-3.5-1.13-5.13-1.02-1.86-2.28-3.1-3.6-4.41-1.89-1.86-3.84-3.79-5.06-7.61-.48-1.48-1.57-7.6.4-9.02h0s.01-.02.01-.02c.03-.2.11-.4.18-.61.1-.27.2-.54.19-.75Zm7.16,23.58l.52,1.12-.96-.77c-1.73-1.38-3.69-2.57-5.58-3.71-3.36-2.04-6.84-4.15-9.23-7.43l-.76-1.04,1.13.61c.88.47,1.79.93,2.75,1.42,4.65,2.35,9.92,5.01,12.14,9.8Z"/>
          <path class="cls-2" d="m106.03,83.7c2.04,2.82,4.14,5.74,5.46,9.56.33.2.5.11.55.08.64-.35.94-2.42.9-3.71-.06-2.03-.8-4.03-1.59-6.14-.98-2.65-1.99-5.38-1.94-8.65.07-4.49,1.47-6.14,3.79-8.87.22-.26.46-.54.7-.83.39-.47.43-.89.32-1.02-.11-.12-.53-.1-1.23.42-4.06,2.97-5,9.5-4.15,14.31l.22,1.24-8.28-11.34c-.15.02-.28.1-.47.21,0,0,0,0-.01,0-.19,6.51,2.69,10.51,5.74,14.73Zm-3.85-10.42c.73.92,1.5,1.81,2.31,2.76,3.39,3.94,6.89,8.02,7.28,13.34l.09,1.31-.64-1.15c-1.08-1.94-2.47-3.79-3.81-5.58-2.38-3.18-4.85-6.47-5.75-10.43l-.28-1.24.79.99Z"/>
          <path class="cls-2" d="m95.47,101.32c2.21-.53,4.29-1.03,6.29-1.27.21-.03.59-.02,1.07-.01.88.01,3.22.04,3.42-.43.03-.08-.04-.27-.34-.57-.39-.39-3.2-1.64-3.97-1.85-1.67-.46-3.22-.44-4.71-.41-1.05.02-2.14.03-3.27-.12-6.69-.88-12.08-5.82-13.58-10.2l-.65.23c1.34,5.75,6.6,8.39,11.43,10.41l.73.31-.76.24c-.43.13-.85.27-1.28.41-1.74.56-3.54,1.14-5.35,1.54-.81.18-1.82.26-2.8.33-.95.07-1.85.14-2.37.3-.22.07-.43.26-.45.47,4.71,3.45,10.75,2.01,16.58.61Zm-12.21.42l-1.85-.09,14.52-3.94,6.25.36.04.23c.03.19,0,.36-.1.51-.22.32-.7.41-1.04.47-.06,0-.11.02-.15.03-.73.15-1.46.31-2.19.47-4.57.99-9.28,2-14.03,2-.48,0-.97-.01-1.45-.03Z"/>
          <path class="cls-2" d="m113.36,81.78c.51,2.06,1.03,4.18,1.27,6.28.04.38.02.93,0,1.57-.05,1.33-.13,3.14.47,3.66.09.08.25.18.56.13.48-.36,2.05-4.28,2.24-5.14.35-1.64.26-3.03.16-4.5-.08-1.11-.15-2.25-.02-3.5.37-3.49,2.66-8.66,5.71-10.93.62-.46,1.48-.82,2.24-1.13.65-.27,1.26-.52,1.59-.78.18-.14.18-.25.15-.55,0-.03,0-.07-.01-.11-2.7.23-7.34,1.98-10.13,10.67l-.07.2h-.21c-.13,0-.24-.07-.34-.2-.66-.87-2.59-9.02-2.51-11.12h-.01c-.87,0-1.29,1.01-1.7,2.23l-.04.12c-1.48,4.37-.39,8.81.66,13.1Zm.12-11.14c.17-.07.43-.07.74.31l.05.06v.08c.32,1.78.8,3.56,1.26,5.28,1.12,4.18,2.28,8.5,1.08,13.11l-.31,1.21-3.36-16.23c-.11-1.6-.1-3.56.55-3.81Z"/>
          <path class="cls-2" d="m76.77,101.05s-.07.17.09.55c.83,1.94,5.3,4.33,7.43,4.62,1,.13,2.17.07,3.3.02,1.04-.05,2.12-.11,3.1-.02l.56.05-.36.43c-2.11,2.47-4.88,4.16-7.56,5.79-.66.4-1.31.8-1.96,1.21-.02.07,0,.12.02.15.19.32,1.11.53,1.7.57,4.61.27,9.58-3.24,13.98-6.33,2.03-1.43,3.96-2.79,5.76-3.73.13-.07.4-.17.78-.3,2.3-.84,2.78-1.23,2.77-1.41,0,0-.05-.15-.62-.32-3.63-1.11-6.68.06-9.92,1.3-2.5.96-5.1,1.97-8.09,1.93-4.44-.02-5.92-1.18-8.62-3.27-.33-.26-.68-.53-1.06-.81-.51-.39-1.16-.54-1.3-.43Zm19.39,3.55l6.98-1.94-11.47,7.93-8.08,3.27,12.56-9.25Z"/>
          <path class="cls-2" d="m101.73,121.08l.66-.66-.16.92c-.23,1.29-.35,2.62-.47,3.91-.11,1.17-.22,2.38-.41,3.56-.05.32-.21.8-.39,1.36-.28.87-.87,2.68-.51,2.95.02.02.26.16,1.17-.4,3.51-2.15,4.71-9.56,5.58-14.97.3-1.86.56-3.46.87-4.71.22-.87.52-1.67.81-2.44.37-.99.72-1.93.88-2.93-3.61.93-4.87,4.15-6.08,7.28-.49,1.26-.95,2.45-1.56,3.5-1.35,2.35-3.49,4.58-5.86,6.12-1.89,1.23-4.8,2.58-8,2.13l-.27.17-.11.77c5.98.79,9.81-2.51,13.85-6.57Zm.7,7.95c.12-1.12.2-2.25.29-3.45.33-4.46.67-9.07,2.79-12.86.06-.11.12-.24.19-.38.32-.67.8-1.68,1.75-1.44l.31.08-.1.3c-.83,2.45-1.22,5-1.6,7.47-.45,2.93-.92,5.95-2.11,8.86-.04.09-.08.21-.12.34-.19.59-.46,1.4-1.1,1.41h-.33s.03-.32.03-.32Z"/>
          <path class="cls-2" d="m140.54,87.93l-.32.09c-3.31.91-6.48,3.27-9.54,5.56-1.88,1.41-3.83,2.86-5.77,3.93-.3.16-.74.32-1.25.5-.91.33-2.17.77-2.39,1.28-.04.1-.04.19,0,.3.23.55,3.9.59,5.68.37,1.54-.19,2.74-.83,3.91-1.45.85-.45,1.73-.92,2.73-1.2,1.84-.52,3.69-.78,5.47-.78,3.29,0,6.38.87,8.91,2.57.39.26.71.62,1.01.97.55.62,1.03,1.16,1.81,1.11.03-.06.05-.13.04-.25-.19-1.16-3.37-3.35-4.21-3.77-2.85-1.41-6.96-1.94-9.79-1.25l-.28.07-.32-1.25,9.61-6.74c-1.2-1.2-3.65-.52-5.3-.06Zm1.25,1.32c-1.16.87-2.27,1.82-3.45,2.83-3.75,3.19-7.62,6.5-12.64,6.94l-1.08.1,12.5-8.75,6.25-2.31-1.58,1.19Z"/>
          <path class="cls-2" d="m134.02,113.72l-.48-.47.67-.03c3.64-.17,7.17.76,10.58,1.64.28.07.56.15.85.22.05-.99-.66-1.62-1.47-2.34l-.22-.2c-3.29-2.98-8.28-3.81-13.09-4.62-2.18-.37-4.24-.71-6.13-1.25-.63-.18-1.21-.44-1.77-.69-.91-.41-1.76-.8-2.75-.77,1.03,3.7,4.24,4.96,7.35,6.18,1.08.42,2.19.86,3.18,1.39,5.64,3.01,9.08,8.64,8.85,14.42h.61c1.2-5.64-2.56-9.92-6.19-13.49Zm-10.51-5.84l-.85-.89,1.16.42c2.19.78,4.64,1.16,7.02,1.53,3.86.59,7.85,1.21,10.94,3.56l1.05.8-1.29-.28c-1.66-.36-3.43-.55-5.3-.74-4.66-.48-9.48-.99-12.73-4.39Z"/>
          <path class="cls-2" d="m127.28,68.99c-.72.12-2.47,1.89-2.94,2.51-2.4,3.15-3.15,7.89-3.89,12.48-.42,2.62-.81,5.1-1.5,7.28-.14.45-.36.86-.56,1.27-.34.65-.66,1.28-.64,1.99,3.74-.64,5.01-4.06,6.25-7.37.47-1.25.91-2.43,1.47-3.45,1.5-2.72,6.4-7.38,9.84-8.01.48-.09,1.09-.09,1.73-.09,1.02,0,2.28,0,2.59-.46.1-.14.1-.36.01-.63-6.03-.66-9.66,2.43-13.77,6.55l-.64.64,2.04-12.7Zm-6.85,22.55l-.94.98.45-1.28c.81-2.3,1.17-4.85,1.52-7.32.54-3.85,1.11-7.82,3.38-11.02l.75-1.05-.22,1.27c-.28,1.58-.43,3.21-.58,4.94-.44,4.86-.9,9.88-4.35,13.48Z"/>
          <path class="cls-2" d="m132.14,100.83c-2.08.49-4.22.99-6.29,1.26-.27.03-.69.02-1.23.01-1.09-.02-2.92-.06-3.29.4-.03.04-.05.08-.05.16,1.64,1.36,3.67,2.31,5.59,2.61,1.39.22,2.66.13,3.89.03.67-.05,1.32-.1,1.97-.1.25,0,.5,0,.76.02,4,.26,9.86,2.88,12.36,6.66.29.44.5.98.69,1.5.41,1.09.72,1.79,1.38,1.8-.36-5.61-6.14-8.97-11.04-10.15l-.91-.22.88-.33c3.61-1.37,7.49-2.63,11.47-2.56l-.05-1.01c-5.11-2.68-10.71-1.37-16.12-.09Zm11.1.72c-.11.02-.21.04-.3.07-4.65,1.49-9.2,2.81-13.58,2.81-1.27,0-2.52-.11-3.75-.36l-.2-.04-.03-.2c-.12-.74.69-.88,1.08-.95.08-.01.15-.03.22-.04,5.31-1.29,11.51-2.58,17.27-2.45h.24s.04.24.04.24c.12.71-.6.84-.99.92Z"/>
          <path class="cls-2" d="m127.24,120.05l.18-.16c.14-.12.32-.09.38-.09,1.39.17,8.37,4.72,9.79,6.14l.57-.37c-1.25-5.51-6.09-8.5-10.77-11.4-1.47-.91-3-1.86-4.35-2.85-.86-.64-1.61-1.34-2.34-2.02-.62-.58-1.2-1.12-1.82-1.61-.12-.1-.22-.2-.31-.29-.17-.18-.26-.28-.46-.26-.22.74-.05,1.36.18,2.13l.07.25c.85,3.02,2.63,4.86,4.51,6.81,1.68,1.73,3.41,3.52,4.56,6.24,1.96,4.62,2.01,7.7.18,12.48.26.04.48,0,.67-.11.62-.34.89-1.37,1.13-2.28l.05-.2c1.05-3.89.38-7.78-2.12-12.23l-.12-.21Zm-6.99-8c-.2-.54-.03-.89.15-1.08l.19-.2.21.17c1.76,1.43,3.76,2.65,5.71,3.83,3.32,2.02,6.75,4.11,9.11,7.3l.41.55-.68-.09c-1.58-.2-13.95-7.36-15.09-10.49Z"/>
          <path class="cls-2" d="m93.85,88.67l-11.92-2.05c.15.55,1.66,2.47,3.1,3.49,2.97,2.11,7.11,2.86,11.12,3.58,1.81.33,3.52.64,5.09,1.06.46.12,1.51.53,2.63.97,1.26.49,2.98,1.16,3.27,1.16.15-.04.19-.12.21-.19.19-.71-1.4-2.73-2.09-3.41-1.76-1.71-3.61-2.36-5.56-3.04-1.13-.4-2.31-.81-3.46-1.44-2.36-1.3-4.55-3.48-6.03-5.99-1.54-2.62-2.18-5.41-1.83-7.9h-.95c-.68,5.74,2.53,9.84,5.78,13.11l.64.65Zm10.24,5.18l.77.72-14.71-3.15-6.03-3.02,1.94.33c1.37.23,2.78.4,4.28.56,4.96.56,10.09,1.15,13.76,4.56Z"/>
          <path class="cls-2" d="m113.87,138.11c.36-.06,2.19-1.83,2.62-2.41,2.25-3.04,3.27-8.24,2.29-11.6l-.08-.29.29-.08c.76-.2,1.01.19,1.19.47.06.09.11.18.19.25,2.39,2.4,4.39,5.97,6.02,8.89,1.52-.89.7-4.14.39-5.4-.84-3.35-3.08-6.36-5.24-9.28-2.3-3.1-4.68-6.3-5.5-10.01-.17-.13-.32-.19-.45-.19-.05,0-.1.01-.15.04-.77.41-.9,3.58-.75,5.17.17,1.87.88,3.24,1.57,4.57.48.93.99,1.9,1.28,3.02,1.43,5.38.66,10.13-2.36,14.54-.08.11-.23.27-.45.49-.35.36-1.29,1.3-1.19,1.65.02.07.14.13.33.17Zm1.79-25.35l-.09-1.1,8.89,13.15,2.1,5.89-1.13-1.46c-.81-1.06-1.72-2.13-2.6-3.17-3.32-3.93-6.76-8-7.18-13.31Z"/>
          <path class="cls-2" d="m88.8,125.32c.84.43,3.95-1.18,4.79-1.77,2.76-1.96,4.9-5.44,6.97-8.8.95-1.54,1.85-3,2.78-4.26.24-.32.87-1.04,1.59-1.88.94-1.07,2.33-2.67,2.54-3.07-.03-.07-.08-.12-.17-.16-.79-.37-3.3.58-4.47,1.18-1.91.97-3.28,2.34-4.74,3.79-2.07,2.06-4.21,4.19-8.05,5.28-4.03,1.14-7.22.3-10.56-.62-.08.12-.05.2-.04.24.32.89,3.98,1.8,4.81,1.88,3.94.37,6.47-.63,10.17-2.32l.35-.16.06.38c.21,1.43-2.08,4.53-4.65,7.85-.72.93-1.47,1.89-1.56,2.13,0,.21.09.28.17.32Zm9.26-13.13c.17-.21.35-.42.53-.64,1.37-1.67,2.91-3.57,5.23-4.15l.9-.22-.61.7c-1.56,1.8-2.86,3.93-4.12,5.99-1.98,3.26-4.03,6.62-7.21,8.83l-1.04.72,6.32-11.22Z"/>
          <path class="cls-2" d="m132.79,86.55c.91-1.9,1.9-3.73,2.96-5.44.13-.21.41-.57.77-1.04.56-.73,1.96-2.55,2.13-3.19-5.64.67-8.72,5.72-11.7,10.61-.9,1.48-1.76,2.88-2.67,4.14-.55.76-1.32,1.55-2.06,2.32-.72.74-1.41,1.45-1.76,2-.25.38-.37.59-.36.93,2.95,0,5.5-1.64,7.14-3.03,1.12-.95,1.94-1.84,2.73-2.69,1.69-1.82,3.15-3.4,6.77-4.67,3.67-1.29,5.01-.95,7.24-.38.74.19,1.57.4,2.62.58.9.16,1.17-.02,1.19-.07.03-.09-.16-.48-1-.94-3.46-1.9-7.92-1.49-13.62,1.25l-.74.36.35-.74Zm-3.63,3.78c-.18.21-.35.42-.53.64-1.26,1.54-2.7,3.28-4.85,3.77l-.85.19.56-.66c1.48-1.75,2.73-3.82,3.94-5.81,2.03-3.34,4.13-6.8,7.39-9.01l1.05-.71-6.72,11.61Z"/>
          <path class="cls-2" d="m113.81,135.73c2.74-5.26,1.48-10.65.15-16.36-.64-2.75-1.3-5.59-1.46-8.37-.01-.19.02-.47.06-.79.04-.38.17-1.52-.02-1.65,0,0-.24-.05-1.01.73-1.21,1.23-2.31,5.56-2.33,7.52-.01,1.27.06,2.29.13,3.19.17,2.33.29,4.02-1.22,7.5-1.67,3.86-3.04,4.63-5.51,6.02-.57.32-1.23.69-1.95,1.14-.34.21-.49.48-.4.7.09.21.39.37.86.25,2.67-.68,5.91-3.87,7.26-6.42l2.22-4.94,2.46,11.37.76.1Zm-3.55-17.38c-.21-2.58.11-4.47.97-5.77l.46-.7.07.83c.2,2.39.76,4.81,1.3,7.14.87,3.76,1.77,7.64,1.22,11.59l-.2,1.44-3.82-14.53Z"/>
          <path class="cls-2" d="m111.08,104.46c-.29-.08-.45-.36-.6-.63-.24-.44-.41-.7-.86-.6v2.21s7.29,0,7.29,0c.8,0,1.32-.97,1.46-1.87.18-1.15-.16-2.47-1.32-2.84-.38-.12-.89-.12-1.38-.12-.79,0-1.6,0-2.06-.5-.26-.29-.36-.68-.31-1.21.04-.37.19-.67.47-.89.52-.42,1.44-.54,2.8-.38.64.08.88.55,1.04.86.16.32.21.37.36.35.34-.21.48-.82.43-1.32-.04-.44-.21-.78-.41-.84-.66-.2-3.29-.11-5.03-.04-.78.03-1.45.05-1.88.05-.7,0-1.48.91-1.69,1.99-.11.57-.21,1.96,1.32,2.6.23.1.68.15,1.15.2,1.04.12,2.22.25,2.69.97.22.33.26.73.12,1.2-.32,1.07-3.08.94-3.58.8Zm.52-3.5l-1.49-2.05,2.4-1.61-.91,3.67Zm4.04.38l1.7.96v1.4l-1.7.96v-3.33Z"/>
          <polygon class="cls-2" points="96.55 130.09 96.55 130.09 96.55 130.09 96.55 130.09"/>
          <path class="cls-2" d="m88.84,145.05c.11.06.44-.09.88-.72,1.73-2.53,3.89-6.21,6.59-11.25.05-.1.13-.24.23-.41,1.33-2.3,1.38-2.87,1.3-3.01-.05-.05-.09-.06-.12-.06-.28,0-.74.48-.94.68l-.02.02c-.9.93-7.22,11.83-7.86,13.38-.32.77-.21,1.3-.07,1.38Z"/>
          <path class="cls-2" d="m84.6,71.88c.09.06.17.12.24.18.33.25.51.4.9.36.04-.5-.05-.85-.36-1.37-.49-.84-7.42-7.63-8.69-8.66-.07-.06-.15-.13-.24-.21-.34-.3-.95-.84-1.35-.84-.02,0-.04,0-.06,0-.06,0-.16.04-.26.2-.19.31-.18.33.05.52.09.08.21.18.32.31,1.65,2.03,7.55,8.09,9.46,9.49Z"/>
          <path class="cls-2" d="m123.87,135.2c-.19-.57-.33-.84-.61-.81-.42.29-.4.42-.32.83.03.13.05.26.07.42.24,2.17,1.06,4.64,1.85,7.04.78,2.36,1.58,4.8,1.89,7.04l.87.02c-.43-1.61-.8-3.32-1.19-5.13-.69-3.17-1.4-6.44-2.46-9.16-.03-.08-.06-.17-.09-.26Z"/>
          <path class="cls-2" d="m113.12,141.82v14.65c.05.13.59.34.97.34,0,0,0,0,0,0v-14.95l-.63-.38-.34.34Z"/>
          <path class="cls-2" d="m142.96,72.76c.93-.42,8.48-7.87,9.29-9,.05-.07.11-.14.16-.22.24-.33.47-.64.55-1.01l-.58-.35c-.75.96-2.59,2.65-4.53,4.44-2.2,2.02-4.94,4.53-5.13,5.23-.06.24,0,.59.14.8.04.06.08.09.1.11Z"/>
          <path class="cls-2" d="m104.44,65.97l.77.15c-.05-1.67-2.47-10.88-3.03-12.31-.34-.87-.69-1.09-.8-1.06-.14.04-.36.46-.24,1.32.17,1.23,2.82,10.75,3.3,11.89Z"/>
          <path class="cls-2" d="m101.39,148.55l.78-.36,2.85-12.01-.78.35c-.19,1.73-.88,3.75-1.55,5.7-.69,2.02-1.35,3.93-1.47,5.5,0,.11-.02.2-.03.29-.04.29-.05.35.2.53Z"/>
          <path class="cls-2" d="m123.92,65.31c.32-.26.44-.55.62-.97l.06-.15c.48-1.13,2.74-9.66,2.76-11.07-.13-.01-.23-.02-.32-.02-.33,0-.42.11-.64.55-.39.76-2.68,9.36-2.75,10.35v.18c-.06.56-.08.83.27,1.13Z"/>
          <path class="cls-2" d="m85.01,129.48c-1.5,1.22-5.76,5.36-6.77,6.74-.06.09-.12.17-.18.24-.26.33-.4.51-.36.9.51.05.85-.05,1.37-.36.44-.29,6.4-6.25,6.7-6.71.37-.61.35-1.05.22-1.17-.12-.11-.48-.04-.97.36Z"/>
          <path class="cls-2" d="m144.16,129.87c-.06-.05-.13-.11-.21-.17-.31-.25-.93-.75-1.25-.75-.02,0-.03,0-.05,0-.08.03-.32.29-.35.51-.01.08.01.11.06.15l.03.03,7.98,7.59c.3-.25.35-.39.23-.83-.26-.51-5.68-5.95-6.44-6.53Z"/>
          <path class="cls-2" d="m134.32,134.54c-.42-.55-.48-.62-1-.56-.03.53.1.98.3,1.46.61,1.46,3.86,7.16,4.77,8.35.39.51.46.61,1,.55.03-.5-.11-.94-.31-1.48-.45-1.26-3.89-7.19-4.77-8.33Z"/>
          <path class="cls-2" d="m134.54,66.18s0,0,0,0c.23,0,.44-.25.69-.57l.1-.13c.45-.58,4.52-7.55,4.67-8.02.02-.07.04-.14.06-.2.09-.27.09-.29-.12-.44l-.83-.13c-.43,1.4-1.49,2.95-2.5,4.46-1.04,1.54-2.03,2.99-2.33,4.2-.13.5-.13.53.26.83Z"/>
          <path class="cls-2" d="m93.4,65.86c.36.34.49.38.96.33.07-.98-3.42-6.99-4.64-8.77-.44-.64-.77-.78-.88-.72-.15.08-.25.61.07,1.38.31.74,4.16,7.42,4.5,7.78Z"/>
          <path class="cls-2" d="m114.87,51.66c-.03-.33-.05-.53-.21-.7l-.77-.11v9.9c.68.05.86-.12.98-.76.24-1.35.19-6.61.02-8.1,0-.08-.02-.15-.02-.23Z"/>
          <path class="cls-2" d="m145.54,119.45c.39.37,6.03,3.68,6.51,3.82.55.09.83-.03.87-.14.05-.13-.1-.48-.71-.9-1.42-.97-6.54-3.96-7.3-3.83-.03.04-.04.08-.04.11,0,.28.48.74.68.94Z"/>
          <path class="cls-2" d="m82.2,119.15c-.16,0-.5.08-1.2.38l-.16.07c-1.2.49-4.87,2.62-5.85,3.36-.34.26-.48.56-.37.79.1.2.39.34.83.21.41-.15,5.88-3.42,6.22-3.71.22-.22.69-.67.69-.95,0-.04,0-.08-.06-.12-.02-.01-.05-.02-.1-.02Z"/>
          <path class="cls-2" d="m144.42,92.33l-.14.73c1.04,0,5.22-.89,5.86-1.26.51-.3.59-.37.55-.87l-6.26,1.4Z"/>
          <path class="cls-2" d="m149.14,80.14c-1.41.68-2.5,1.33-2.65,1.49-.33.36-.38.49-.34.93.29-.02,1.09-.24,2.69-1.01,1.41-.68,2.5-1.33,2.65-1.49.33-.36.38-.49.34-.93-.29.02-1.09.24-2.69,1.01Z"/>
          <path class="cls-2" d="m81.84,110.15c.03-.38-.02-.64-.15-.79-.1-.11-.25-.16-.47-.16h0c-.6,0-4.45.98-4.83,1.88-.01.04-.04.09,0,.17l5.45-1.09Z"/>
          <path class="cls-2" d="m148.99,109.71c-.23-.05-.43-.09-.59-.13l-.23.61c.31.3,1.89,1.04,2.99.98.34-.02.56-.11.66-.28,0-.05-.01-.1-.05-.16-.33-.5-1.93-.84-2.79-1.02Z"/>
          <path class="cls-2" d="m76.49,78.86c-.18.03-.27.11-.3.28,0,.06.14.36.89.86,1.07.71,2.28,1.12,2.51,1.01.02-.02.1-.1-.03-.35-.42-.85-2.26-1.93-3.07-1.81Z"/>
          <path class="cls-2" d="m79.42,91.54s.07-.08.01-.2c-.16-.34-.96-.85-2.46-.87l.03,1c1.55.46,2.26.25,2.41.07Z"/>
          <path class="cls-2" d="m29.73,95.09s0,0,0,0c-.06,0-.38.18-.68,1.14-.29.92-.45,1.97-.61,3.08-.15,1.03-.31,2.1-.59,3.09-.72,2.52-1.91,4.72-3.06,6.86-2.09,3.86-4.06,7.51-2.95,12.45l.04.18c.19.85.47,2.13,1.12,2.53.14.08.28.12.45.12-.11-.6-.22-1.17-.33-1.71-.59-2.91-1.05-5.21.21-8.63.81-2.2,1.82-4.09,2.8-5.93,1.86-3.49,3.62-6.78,3.89-11.8.05-.98-.19-1.35-.28-1.37Z"/>
          <path class="cls-2" d="m34.71,125.14l-.19-.3-.73-.11v6.47c0,.84-.91,2.29-1.71,3.56-.36.57-.83,1.32-.97,1.68l.77.26c3.08-3.23,3.2-7.46,2.84-11.57Z"/>
          <path class="cls-2" d="m203.89,124.05l.94.36c2.63-5.92.28-10.41-2.21-15.17-1.26-2.4-2.56-4.89-3.25-7.64-.49-1.94-.81-3.97-.96-6.02l-.19-.3-.83-.12c-.04.82.59,5.51,1.63,8.74.67,2.08,1.72,4.02,2.75,5.9,2.41,4.43,4.69,8.62,2.11,14.25Z"/>
          <path class="cls-2" d="m195.54,134.94c-.51-.69-1.09-1.47-1.41-2.4-.93-2.7-.76-4.99-.37-7.85h-.98c-.78,3.72-.13,9.17,2.35,11.7.51.53.98.6,1.2.44.16-.12.18-.36.03-.64-.21-.4-.51-.81-.83-1.25Z"/>
          <path class="cls-2" d="m184.85,119.52c-2.09.92-4.26,1.87-5.56,3.27-.81.87-1.55,3.08-1.11,3.83.05.09.22.37.89.22.2-.05.18-.44.12-.99-.04-.4-.08-.81.02-1.15.55-1.82,3.8-3.29,6.42-4.48,1.04-.47,2.3-1.04,2.66-1.36l-.82-.56c-.78.42-1.67.81-2.61,1.22Z"/>
          <path class="cls-2" d="m40.48,118.52c-.69-.34-1-.44-1.25-.04-.02.15-.06.4-.06.5.02.01.05.02.08.04.09.04.2.09.35.18.7.44,1.65.84,2.66,1.27,2.97,1.26,6.64,2.81,6,6.36l.93-.03c.28-.84.23-1.68-.15-2.51-1.09-2.38-4.84-4.4-7.99-5.5-.19-.07-.39-.16-.57-.25Z"/>
        </g>
      </g>
      <text class="cls-4" transform="translate(259.42 183.88)"><tspan class="cls-9" x="0" y="0">A</tspan><tspan class="cls-1" x="105.9" y="0">UCTION</tspan></text>
      <text class="cls-3" transform="translate(254.52 102.71)"><tspan x="0" y="0">S</tspan><tspan class="cls-6" x="64.36" y="0">H</tspan><tspan class="cls-8" x="164.33" y="0">E</tspan><tspan class="cls-5" x="240.03" y="0">N</tspan><tspan class="cls-7" x="334.52" y="0">B</tspan><tspan class="cls-8" x="414.32" y="0">E</tspan><tspan class="cls-11" x="490.02" y="0">R</tspan><tspan class="cls-10" x="572.8" y="0">G</tspan></text>
    </g>
  </g>
</svg>